<svg width="258" height="203" viewBox="0 0 258 203" fill="none" xmlns="http://www.w3.org/2000/svg">
    <path fill-rule="evenodd" clip-rule="evenodd"
        d="M34.033 220.058L88.8322 168.507C95.6876 162.059 105.794 160.561 114.19 164.722L146.632 180.806L218.555 216.443C220.56 217.439 222.307 218.627 223.833 219.962L223.936 220.073C224.577 220.7 225.189 221.349 225.801 221.999L225.963 222.168C235.14 232.911 231.469 250.301 219.063 256.684C216.019 258.211 212.503 259.118 208.537 259.111L49.4319 258.934C44.3751 258.941 39.967 257.377 36.414 254.839C25.6886 247.232 22.9022 230.528 34.033 220.058Z"
        fill="#9712FF" fill-opacity="0.4" />
    <path
        d="M185.797 70.3182V0.889648H72.2031V70.3182C29.4562 91.3607 0 135.431 0 186.237C0 188.686 0.0810857 191.18 0.235886 193.585C1.67331 191.955 3.19183 190.398 4.78406 188.878L24.5247 170.285C29.1909 139.555 47.0666 113.148 72.2105 97.0788C79.4419 92.4084 87.2482 88.6382 95.5263 85.9157V61.5308V24.2268H162.481V61.5308V85.9157C170.759 88.6382 178.573 92.4084 185.797 97.0788C212.57 114.196 231.19 143.133 234.22 176.468L237.522 178.098C242.844 180.747 247.702 184.008 252.014 187.823L253.334 188.989L254.344 189.999C255.236 190.892 256.091 191.792 256.946 192.722L257.764 193.541C257.919 191.128 258 188.679 258 186.229C258 135.394 228.507 91.3239 185.797 70.3182Z"
        fill="#9712FF" fill-opacity="0.4" />
</svg>