<svg width="258" height="202" viewBox="0 0 258 202" fill="none" xmlns="http://www.w3.org/2000/svg">
<path d="M258 110.409V155.751C258 179.966 244.761 202.641 221.585 217.944L185.782 241.621C169.786 252.213 149.588 258 129 258C108.412 258 88.2139 252.213 72.2105 241.65L36.3706 217.936C13.2759 202.596 0 179.966 0 155.751V21.5541L44.2654 10.5264C72.1073 3.52354 100.591 0 129 0C146.146 0 163.616 1.29 180.622 3.84051L131.116 25.1071C130.401 25.0702 129.715 25.0702 129 25.0702C102.131 25.0702 75.8004 28.3431 50.6859 34.6973L25.0702 41.1621V155.736C25.0702 171.474 34.2919 186.49 50.3247 196.839L86.1646 220.553C97.7157 228.389 113.321 232.878 129 232.878C144.679 232.878 160.247 228.389 171.799 220.553L207.675 196.876C223.708 186.49 232.93 171.474 232.93 155.736V139.762L258 110.409Z" fill="#24ADEA" fill-opacity="0.17"/>
<path fill-rule="evenodd" clip-rule="evenodd" d="M101.872 117.685L163.689 140.337C171.422 143.168 180.076 140.897 185.398 134.654L205.986 110.527L251.638 57.0546C252.906 55.5582 253.908 54.0028 254.675 52.4032L254.719 52.2779C255.021 51.5555 255.287 50.8184 255.559 50.0812L255.633 49.8896C259.333 38.0732 250.407 25.3353 238.222 24.4655C235.244 24.2812 232.103 24.7604 228.919 26.1388L100.899 81.0634C96.823 82.7956 93.8154 85.582 91.8251 88.8402C85.8174 98.6663 89.3188 113.085 101.872 117.685Z" fill="#24ADEA" fill-opacity="0.17"/>
</svg>
