<svg width="812" height="596" viewBox="0 0 812 596" fill="none" xmlns="http://www.w3.org/2000/svg">

    <path
        d="M659 472C659 463.163 666.163 456 675 456H737C745.837 456 753 463.163 753 472V534C753 542.837 745.837 550 737 550H675C666.163 550 659 542.837 659 534V472Z"
        fill="#EBEFFF" />
    <path
        d="M623 342C623 337.582 626.582 334 631 334H655C659.418 334 663 337.582 663 342V366C663 370.418 659.418 374 655 374H631C626.582 374 623 370.418 623 366V342Z"
        fill="#295BFF" />
    <path
        d="M664 81C664 72.1634 671.163 65 680 65H742C750.837 65 758 72.1634 758 81V143C758 151.837 750.837 159 742 159H680C671.163 159 664 151.837 664 143V81Z"
        fill="#EBEFFF" />
    <path
        d="M712 55C712 50.5817 715.582 47 720 47H764C768.418 47 772 50.5817 772 55V99C772 103.418 768.418 107 764 107H720C715.582 107 712 103.418 712 99V55Z"
        fill="#295BFF" />
    <path
        d="M271 478.999C271 474.58 274.582 470.999 279 470.999H303C307.418 470.999 311 474.58 311 478.999V502.999C311 507.417 307.418 510.999 303 510.999H279C274.582 510.999 271 507.417 271 502.999V478.999Z"
        fill="#295BFF" />
</svg>