<svg width="93" height="92" viewBox="0 0 93 92" fill="none" xmlns="http://www.w3.org/2000/svg">
<g clip-path="url(#clip0_2630_21952)">
<path d="M73.9841 92H19.0159C8.7892 92 0.5 83.7108 0.5 73.4841V18.5159C0.5 8.2892 8.7892 0 19.0159 0H73.9841C84.2108 0 92.5 8.2892 92.5 18.5159V73.4841C92.5 83.7108 84.2108 92 73.9841 92Z" fill="#0AAF60"/>
<path d="M20.2961 61.9068C28.0094 57.8128 36.7992 55.4889 46.1242 55.4889C56.0234 55.4889 65.3228 58.1072 73.3692 62.6833C74.1493 61.3659 74.8337 59.984 75.4078 58.5469C67.3762 54.0261 58.202 51.3047 48.4353 50.9312V47.6763C48.8989 47.702 49.3664 47.7149 49.8318 47.7149C52.6305 47.7149 56.7356 47.2493 60.3916 45.0285C66.8205 41.1259 69.1408 33.4769 69.2365 33.1531L69.9246 30.8237L67.5473 30.3545C67.2161 30.2901 59.376 28.8089 52.9544 32.706C49.7564 34.6472 47.5797 37.5121 46.1978 39.9115C45.1528 37.9795 44.15 35.4035 44.15 32.6324C44.15 29.21 45.6845 26.0801 46.9209 24.1113C47.9826 25.8005 49.2853 28.6745 49.6257 31.5284C49.6257 31.5284 50.5034 30.6433 51.4805 30.0417C52.463 29.4363 53.5432 28.9377 53.672 28.8751C52.4041 23.1969 48.7224 19.0808 48.5512 18.8931L46.9209 17.0955L45.2908 18.8931C45.07 19.136 40.0412 24.7645 39.7541 31.9865C33.7448 28.3893 26.5742 29.2891 26.256 29.3315L23.8548 29.6516L24.3993 32.0197C24.4748 32.3491 26.324 40.1304 32.4972 44.4195C34.8193 46.0332 37.7357 47.0929 40.9704 47.5437C40.9704 47.5437 41.2501 46.5079 40.9668 44.9033C40.7422 43.6319 40.4754 43.3633 40.0301 42.8904C38.0889 42.4653 36.422 41.7661 35.0088 40.7836C32.2028 38.8332 30.5118 35.7861 29.6048 33.6444C31.9213 33.7437 35.3584 34.2608 38.1662 36.2131C41.4488 38.4947 43.206 42.2832 43.9604 44.3403L44.0137 44.4857L44.0212 50.9165C34.7953 51.2367 26.094 53.6525 18.3789 57.7024C18.9125 59.1652 19.5546 60.5673 20.2961 61.9068ZM55.2396 36.4891C58.1597 34.7171 61.6208 34.4099 63.9428 34.4559C62.905 36.5369 61.0301 39.4735 58.11 41.2455C55.19 43.0173 51.7233 43.3191 49.4068 43.2787C50.4445 41.1976 52.3196 38.2609 55.2396 36.4891Z" fill="white"/>
<path d="M27.3047 70.4147C28.6903 71.5776 30.1826 72.6172 31.765 73.5169C36.2214 71.7947 41.0606 70.8471 46.1187 70.8471C51.5854 70.8471 56.7982 71.9529 61.5471 73.9493C63.1571 73.0975 64.6826 72.1039 66.1011 70.9834C60.088 67.9509 53.3003 66.2397 46.1187 66.2397C39.3991 66.2379 33.0235 67.7375 27.3047 70.4147Z" fill="white"/>
<path d="M21.9219 64.5193C22.8216 65.8129 23.8188 67.0328 24.9044 68.1662C31.2967 64.9701 38.5039 63.1669 46.1233 63.1669C54.2377 63.1669 61.8811 65.2093 68.5732 68.8029C69.6937 67.7006 70.7279 66.5138 71.6644 65.248C64.1093 60.9921 55.3951 58.5596 46.1215 58.5596C37.3944 58.5596 29.1604 60.7161 21.9219 64.5193Z" fill="white"/>
</g>
<defs>
<clipPath id="clip0_2630_21952">
<rect width="92" height="92" fill="white" transform="translate(0.5)"/>
</clipPath>
</defs>
</svg>
