<svg width="156" height="32" viewBox="0 0 156 32" fill="none" xmlns="http://www.w3.org/2000/svg">
<path fill-rule="evenodd" clip-rule="evenodd" d="M23.8201 3.49022V15.1356C23.8201 16.5903 22.9185 17.8919 21.5595 18.3999L4.70766 24.6957C1.2641 25.9823 -1.55316 21.7255 0.96656 19.043L17.8184 1.1018C19.9747 -1.19359 23.8201 0.336526 23.8201 3.49022Z" fill="#273DF2"/>
<path fill-rule="evenodd" clip-rule="evenodd" d="M18.3555 30.0209V23.4186C18.3555 22.5937 18.8668 21.8559 19.6371 21.5678L29.191 17.9982C31.1434 17.269 32.7406 19.6823 31.3119 21.2029L21.758 31.3753C20.5357 32.6769 18.3555 31.8091 18.3555 30.0209Z" fill="#273DF2"/>
<path d="M42.7856 9.31635C42.5492 9.0797 42.4316 8.78731 42.4316 8.43918C42.4316 8.09106 42.5492 7.7991 42.7856 7.56201C43.0216 7.32536 43.3132 7.20703 43.6603 7.20703C44.0211 7.20703 44.3233 7.32536 44.5657 7.56201C44.809 7.79867 44.9304 8.09106 44.9304 8.43918C44.9304 8.78731 44.809 9.0797 44.5657 9.31635C44.3229 9.55301 44.0211 9.67133 43.6603 9.67133C43.3127 9.67133 43.0212 9.55301 42.7856 9.31635ZM42.5979 11.6345H44.7427V21.6589H42.5979V11.6345Z" fill="black"/>
<path d="M51.1783 8.85745H46.6592V7.06152H57.8419V8.85745H53.3227V21.6591H51.1779V8.85745H51.1783Z" fill="black"/>
<path d="M58.9405 20.5835C57.8919 19.6579 57.3682 18.3524 57.3682 16.6676C57.3682 15.0247 57.8367 13.7227 58.7738 12.7623C59.7109 11.8016 61.0473 11.3214 62.7829 11.3214C63.9346 11.3214 64.9132 11.5405 65.7195 11.979C66.524 12.4176 67.132 13.0234 67.5411 13.7964C67.9506 14.569 68.1558 15.4496 68.1558 16.4382V17.4821H59.368C59.4373 18.4292 59.8366 19.1357 60.565 19.6017C61.2944 20.0682 62.2832 20.3014 63.5328 20.3014C64.1711 20.3014 64.8166 20.2423 65.4694 20.1239C66.1218 20.006 66.698 19.8491 67.1974 19.654V21.3458C66.7528 21.5267 66.1667 21.6763 65.4378 21.7947C64.7093 21.913 63.9906 21.9722 63.2827 21.9722C61.4359 21.9722 59.9883 21.5096 58.9405 20.5835ZM66.1773 15.9996C66.1495 15.0526 65.8405 14.3186 65.2509 13.7964C64.6606 13.2742 63.8243 13.0131 62.741 13.0131C61.6864 13.0131 60.8669 13.2845 60.2837 13.8277C59.7006 14.3709 59.3954 15.095 59.3676 16H66.1773V15.9996Z" fill="black"/>
<path d="M72.6107 21.3462C71.7497 20.9287 71.0807 20.3195 70.6014 19.519C70.1222 18.7186 69.8828 17.7681 69.8828 16.6684C69.8828 15.5688 70.1222 14.6187 70.6014 13.8179C71.0807 13.0174 71.7531 12.4014 72.621 11.9696C73.4888 11.5383 74.4853 11.3223 75.6092 11.3223C77.1363 11.3223 78.3581 11.6219 79.2747 12.22V13.9533C78.3722 13.3265 77.2197 13.0136 75.8179 13.0136C74.679 13.0136 73.759 13.3235 73.0587 13.9431C72.3576 14.5626 72.0071 15.471 72.0071 16.6684C72.0071 17.8659 72.3538 18.7709 73.0481 19.3831C73.7419 19.9962 74.6516 20.3023 75.776 20.3023C77.1786 20.3023 78.3863 19.9683 79.3999 19.3V21.0127C78.9134 21.3471 78.362 21.5906 77.7442 21.7437C77.1265 21.8967 76.401 21.9735 75.5678 21.9735C74.4571 21.9726 73.4717 21.7638 72.6107 21.3462Z" fill="black"/>
<path d="M81.5889 6.22559H83.6922V13.0127C84.6502 11.8852 85.9272 11.3214 87.5244 11.3214C88.8569 11.3214 89.8491 11.6764 90.5024 12.3863C91.1547 13.0963 91.4809 14.0506 91.4809 15.2476V21.6592H89.3776V15.4564C89.3776 13.8273 88.6004 13.0131 87.0455 13.0131C86.3791 13.0131 85.7575 13.17 85.182 13.483C84.6058 13.7964 84.1094 14.2736 83.6926 14.9137V21.6592H81.5893V6.22559H81.5889Z" fill="black"/>
<path d="M100.299 18.0673H93.2188V16.7099L100.279 7.06152H102.444V16.3965H104.693V18.0673H102.444V21.6596H100.299V18.0673ZM100.549 16.3965V9.60943L95.6136 16.3965H100.549Z" fill="#273DF2"/>
<path d="M107.822 21.7531C107.01 21.6069 106.347 21.4084 105.833 21.158V19.2365C107.166 19.8633 108.603 20.1762 110.144 20.1762C112.31 20.1762 113.393 19.4453 113.393 17.9838C113.393 17.4826 113.274 17.0791 113.039 16.7726C112.802 16.4665 112.462 16.1985 112.019 15.9688C111.574 15.739 110.852 15.4226 109.852 15.0183C108.478 14.4614 107.485 13.8487 106.874 13.1803C106.263 12.512 105.958 11.6699 105.958 10.6534C105.958 9.88817 106.166 9.2095 106.583 8.61743C106.999 8.02579 107.582 7.5662 108.332 7.23909C109.082 6.91197 109.943 6.7482 110.914 6.7482C111.706 6.7482 112.421 6.81079 113.06 6.93641C113.698 7.0616 114.323 7.26352 114.934 7.54177V9.3797C113.726 8.83651 112.504 8.56513 111.268 8.56513C110.269 8.56513 109.506 8.74648 108.978 9.10832C108.45 9.47059 108.187 9.98549 108.187 10.6534C108.187 11.113 108.301 11.4993 108.531 11.8127C108.76 12.1257 109.1 12.4048 109.551 12.6483C110.002 12.8918 110.672 13.1949 111.56 13.5568C112.546 13.9606 113.324 14.3435 113.893 14.7053C114.462 15.0676 114.896 15.5092 115.194 16.0313C115.492 16.5535 115.642 17.2043 115.642 17.9842C115.642 19.2515 115.191 20.2328 114.289 20.9291C113.386 21.6253 112.053 21.973 110.29 21.973C109.456 21.9722 108.634 21.8993 107.822 21.7531Z" fill="#273DF2"/>
<path d="M118.047 9.31635C117.811 9.0797 117.693 8.78731 117.693 8.43918C117.693 8.09106 117.811 7.7991 118.047 7.56201C118.283 7.32536 118.575 7.20703 118.922 7.20703C119.283 7.20703 119.585 7.32536 119.827 7.56201C120.071 7.79867 120.192 8.09106 120.192 8.43918C120.192 8.78731 120.071 9.0797 119.827 9.31635C119.585 9.55301 119.283 9.67133 118.922 9.67133C118.575 9.67133 118.283 9.55301 118.047 9.31635ZM117.86 11.6345H120.005V21.6589H117.86V11.6345Z" fill="#273DF2"/>
<path d="M125.908 26.2959C125.262 26.1844 124.717 26.0245 124.273 25.8157V24.0824C125.314 24.5552 126.522 24.7923 127.896 24.7923C129.187 24.7923 130.128 24.5107 130.718 23.9465C131.308 23.3827 131.603 22.5295 131.603 21.3883V20.3233C130.687 21.4234 129.34 21.973 127.563 21.973C126.55 21.973 125.64 21.7501 124.835 21.3047C124.03 20.8592 123.398 20.2329 122.94 19.4251C122.482 18.6179 122.253 17.6918 122.253 16.6479C122.253 15.5898 122.478 14.6607 122.929 13.8595C123.38 13.059 124.005 12.4361 124.803 11.9906C125.602 11.5452 126.501 11.3223 127.5 11.3223C128.43 11.3223 129.218 11.4577 129.864 11.7296C130.509 12.0009 131.11 12.4498 131.665 13.0766V11.6357H133.706V21.1589C133.706 22.8716 133.23 24.1835 132.28 25.0954C131.328 26.0073 129.867 26.4635 127.896 26.4635C127.216 26.4631 126.553 26.4073 125.908 26.2959ZM130.26 19.6129C130.919 19.1533 131.367 18.5411 131.603 17.775V15.5195C131.339 14.74 130.885 14.1274 130.239 13.6815C129.594 13.2361 128.84 13.0132 127.979 13.0132C127.299 13.0132 126.685 13.1632 126.137 13.4625C125.588 13.7621 125.158 14.19 124.846 14.7469C124.533 15.3038 124.377 15.9375 124.377 16.6474C124.377 17.3716 124.533 18.0082 124.846 18.5583C125.158 19.1083 125.588 19.5366 126.137 19.8427C126.685 20.1493 127.299 20.3019 127.979 20.3019C128.84 20.3019 129.6 20.0725 130.26 19.6129Z" fill="#273DF2"/>
<path d="M136.356 6.22559H138.46V13.0127C139.418 11.8852 140.695 11.3214 142.292 11.3214C143.624 11.3214 144.617 11.6764 145.27 12.3863C145.922 13.0963 146.248 14.0506 146.248 15.2476V21.6592H144.145V15.4564C144.145 13.8273 143.368 13.0131 141.813 13.0131C141.147 13.0131 140.525 13.17 139.95 13.483C139.373 13.7964 138.877 14.2736 138.461 14.9137V21.6592H136.357V6.22559H136.356Z" fill="#273DF2"/>
<path d="M150.131 21.0947C149.582 20.5099 149.308 19.682 149.308 18.6098V13.2636H147.788V11.6344H149.308V8.62695H151.433V11.6344H153.89V13.2636H151.433V18.4636C151.433 19.132 151.561 19.6053 151.818 19.8835C152.075 20.1622 152.543 20.3011 153.223 20.3011C153.627 20.3011 154.029 20.2106 154.432 20.0297V21.7009C153.904 21.8814 153.251 21.9723 152.474 21.9723C151.46 21.9718 150.679 21.6794 150.131 21.0947Z" fill="#273DF2"/>
</svg>
