<svg width="53" height="140" viewBox="0 0 53 140" fill="none" xmlns="http://www.w3.org/2000/svg">
    <g clip-path="url(#clip0_2625_18245)">
        <path
            d="M26.7761 82.6666C26.7761 69.5504 51.2826 73.2381 51.2826 58.4795V42.7471C51.2826 57.5057 26.7761 53.818 26.7761 66.9381V82.6705V82.6666ZM26.7761 82.6666C26.7761 69.5504 2.26172 73.2381 2.26172 58.4795V42.7471C2.26172 57.5057 26.7761 53.818 26.7761 66.9381V82.6705V82.6666Z"
            fill="url(#paint0_linear_2625_18245)" />
        <path
            d="M26.7761 104.03C26.7761 90.9064 51.2826 94.598 51.2826 79.8354V64.103C51.2826 78.8656 26.7761 75.174 26.7761 88.2941V104.03ZM26.7761 104.03C26.7761 90.9064 2.26172 94.598 2.26172 79.8354V64.103C2.26172 78.8656 26.7761 75.174 26.7761 88.2941V104.03Z"
            fill="url(#paint1_linear_2625_18245)" />
        <path
            d="M49.6097 12.4317C48.6811 12.4317 47.9328 13.1787 47.9328 14.1055V29.1262C45.7897 31.1088 42.8591 32.4776 39.8619 33.7446V8.57588C39.8619 7.64906 39.1097 6.90213 38.185 6.90213C37.2604 6.90213 36.5042 7.64906 36.5042 8.57588V35.1563C33.2445 36.5641 30.2317 38.0854 28.449 40.4318V1.7753C28.449 0.852398 27.6968 0.101562 26.7722 0.101562C25.8475 0.101562 25.0953 0.852398 25.0953 1.7753V40.4279C23.3126 38.0776 20.2919 36.5524 17.0244 35.1446V8.57197C17.0244 7.64515 16.2722 6.89822 15.3475 6.89822C14.4229 6.89822 13.6707 7.64515 13.6707 8.57197V33.7368C10.6774 32.4658 7.75462 31.101 5.61544 29.1222V14.1016C5.61544 13.1748 4.8632 12.4278 3.93858 12.4278C3.01396 12.4278 2.26172 13.1748 2.26172 14.1016V37.1155C2.26172 51.8782 26.7761 48.1866 26.7761 61.3067C26.7761 48.1866 51.2826 51.8782 51.2826 37.1155V14.1016C51.2826 13.1748 50.5343 12.4278 49.6097 12.4278V12.4317Z"
            fill="url(#paint2_linear_2625_18245)" />
        <path
            d="M4.05612 116.704H13.2436V109.9C13.2436 108.703 15.0655 108.703 15.0655 109.9V124.428C15.0655 125.648 13.2436 125.695 13.2436 124.428V118.273H4.05612V124.428C4.05612 125.722 2.26172 125.574 2.26172 124.428V109.9C2.26172 108.68 4.05612 108.754 4.05612 109.9V116.704Z"
            fill="#222424" />
        <path
            d="M30.2931 124.526C29.0942 125.077 27.7465 125.425 26.5476 125.425C22.2771 125.425 18.4297 121.937 18.4297 117.002C18.4297 112.919 21.3524 109.677 25.1959 109.079C28.1187 108.68 30.6653 109.403 32.636 111.468C33.3844 112.317 32.0366 113.337 31.3353 112.59C29.6349 110.796 27.6642 110.522 25.4663 110.772C22.3985 111.245 20.2241 113.416 20.2241 117.029C20.2241 120.642 23.1429 123.704 26.5907 123.704C27.5114 123.704 28.534 123.458 29.486 122.981C30.2579 122.582 31.0062 121.984 31.5312 121.311C32.1032 120.463 33.6312 121.385 32.9808 122.304C32.3069 123.251 31.3549 123.998 30.2853 124.522L30.2931 124.526Z"
            fill="#222424" />
        <path
            d="M37.8264 120.963L35.8087 124.901C35.3581 125.82 33.7087 125.175 34.1592 124.178L41.6973 109.353C41.8462 109.028 42.1988 108.879 42.524 108.879C42.8492 108.879 43.1469 109.028 43.3232 109.353L50.8378 124.103C51.4881 125.175 49.6428 125.801 49.1648 124.827L47.2176 120.963H37.8264ZM42.524 111.543L38.5786 119.391H46.4419L42.524 111.543Z"
            fill="#222424" />
        <path
            d="M0.679688 132.66V129.531H1.05923V130.924H2.73047V129.531H3.11002V132.66H2.73047V131.261H1.05923V132.66H0.679688Z"
            fill="#201600" />
        <path
            d="M3.99947 132.66H3.60156L4.75243 129.531H5.14422L6.29511 132.66H5.89721L4.96059 130.026H4.9361L3.99947 132.66ZM4.1464 131.438H5.75029V131.774H4.1464V131.438Z"
            fill="#201600" />
        <path
            d="M9.44421 132.299L9.40135 133.399H9.00956V132.66H8.78918V132.299H9.44421ZM6.78125 132.66V129.531H7.14244V132.311H8.75858V129.531H9.11977V132.66H6.78125Z"
            fill="#201600" />
        <path
            d="M10.0195 129.531H10.3929V131.994H10.4235L12.1376 129.531H12.5049V132.66H12.1254V130.203H12.0948L10.3868 132.66H10.0195V129.531Z"
            fill="#201600" />
        <path
            d="M15.9076 131.096C15.9076 131.425 15.848 131.711 15.7286 131.951C15.6092 132.191 15.4455 132.377 15.2373 132.507C15.0292 132.637 14.7914 132.702 14.5242 132.702C14.2568 132.702 14.0191 132.637 13.8109 132.507C13.6028 132.377 13.4391 132.191 13.3197 131.951C13.2003 131.711 13.1406 131.425 13.1406 131.096C13.1406 130.765 13.2003 130.48 13.3197 130.24C13.4391 130 13.6028 129.814 13.8109 129.684C14.0191 129.554 14.2568 129.488 14.5242 129.488C14.7914 129.488 15.0292 129.554 15.2373 129.684C15.4455 129.814 15.6092 130 15.7286 130.24C15.848 130.48 15.9076 130.765 15.9076 131.096ZM15.5403 131.096C15.5403 130.825 15.4949 130.596 15.4041 130.41C15.3144 130.223 15.1924 130.082 15.0384 129.987C14.8853 129.891 14.7139 129.843 14.5242 129.843C14.3344 129.843 14.1625 129.891 14.0084 129.987C13.8553 130.082 13.7334 130.223 13.6426 130.41C13.5528 130.596 13.5079 130.825 13.5079 131.096C13.5079 131.366 13.5528 131.595 13.6426 131.781C13.7334 131.968 13.8553 132.109 14.0084 132.205C14.1625 132.3 14.3344 132.348 14.5242 132.348C14.7139 132.348 14.8853 132.3 15.0384 132.205C15.1924 132.109 15.3144 131.968 15.4041 131.781C15.4949 131.595 15.5403 131.366 15.5403 131.096Z"
            fill="#201600" />
        <path
            d="M16.5469 132.66V129.531H16.9264V130.924H18.5977V129.531H18.9772V132.66H18.5977V131.261H16.9264V132.66H16.5469Z"
            fill="#201600" />
        <path
            d="M19.8627 132.66H19.4648L20.6157 129.531H21.0075L22.1584 132.66H21.7605L20.8238 130.026H20.7994L19.8627 132.66ZM20.0097 131.438H21.6136V131.774H20.0097V131.438Z"
            fill="#201600" />
        <path
            d="M22.3828 132.66V132.311H22.4746C22.6052 132.311 22.7067 132.269 22.7792 132.186C22.8516 132.102 22.9037 131.968 22.9353 131.781C22.968 131.595 22.9899 131.348 23.0011 131.04L23.0562 129.531H24.9662V132.66H24.5866V129.867H23.4174L23.3684 131.114C23.3562 131.442 23.326 131.721 23.2781 131.951C23.2301 132.181 23.146 132.357 23.0256 132.478C22.9052 132.599 22.7297 132.66 22.4991 132.66H22.3828Z"
            fill="#201600" />
        <path
            d="M26.0003 130.845H26.8941C27.1186 130.845 27.3079 130.882 27.4619 130.955C27.617 131.028 27.7343 131.131 27.8139 131.265C27.8945 131.398 27.9348 131.556 27.9348 131.737C27.9348 131.918 27.8945 132.078 27.8139 132.217C27.7343 132.355 27.617 132.463 27.4619 132.542C27.3079 132.62 27.1186 132.66 26.8941 132.66H25.7188V129.531H26.0983V132.33H26.8941C27.037 132.33 27.1579 132.301 27.2568 132.244C27.3568 132.186 27.4323 132.112 27.4833 132.021C27.5354 131.93 27.5614 131.833 27.5614 131.731C27.5614 131.581 27.5038 131.452 27.3884 131.344C27.2731 131.235 27.1084 131.181 26.8941 131.181H26.0003V130.845Z"
            fill="#201600" />
        <path
            d="M28.5352 132.66V129.531H28.9147V130.924H30.5859V129.531H30.9655V132.66H30.5859V131.261H28.9147V132.66H28.5352Z"
            fill="#201600" />
        <path
            d="M32.0081 130.845H32.9019C33.1264 130.845 33.3157 130.882 33.4697 130.955C33.6248 131.028 33.7421 131.131 33.8217 131.265C33.9023 131.398 33.9426 131.556 33.9426 131.737C33.9426 131.918 33.9023 132.078 33.8217 132.217C33.7421 132.355 33.6248 132.463 33.4697 132.542C33.3157 132.62 33.1264 132.66 32.9019 132.66H31.7266V129.531H32.1061V132.33H32.9019C33.0448 132.33 33.1657 132.301 33.2647 132.244C33.3646 132.186 33.4401 132.112 33.4911 132.021C33.5432 131.93 33.5692 131.833 33.5692 131.731C33.5692 131.581 33.5116 131.452 33.3963 131.344C33.281 131.235 33.1162 131.181 32.9019 131.181H32.0081V130.845ZM34.6282 129.531V132.66H34.2487V129.531H34.6282Z"
            fill="#201600" />
        <path
            d="M35.3867 129.531H35.7601V131.994H35.7907L37.5048 129.531H37.8721V132.66H37.4926V130.203H37.462L35.754 132.66H35.3867V129.531ZM36.9294 128.749H37.2661C37.2661 128.914 37.2089 129.049 37.0947 129.154C36.9804 129.259 36.8253 129.311 36.6294 129.311C36.4366 129.311 36.283 129.259 36.1688 129.154C36.0555 129.049 35.9989 128.914 35.9989 128.749H36.3356C36.3356 128.828 36.3575 128.898 36.4014 128.958C36.4463 129.018 36.5223 129.048 36.6294 129.048C36.7366 129.048 36.8131 129.018 36.859 128.958C36.9059 128.898 36.9294 128.828 36.9294 128.749Z"
            fill="#201600" />
        <path
            d="M42.3672 130.509H41.9876C41.9653 130.4 41.9257 130.304 41.8697 130.222C41.8144 130.139 41.7474 130.07 41.6675 130.014C41.5891 129.957 41.5018 129.914 41.4058 129.886C41.3102 129.857 41.2099 129.843 41.1061 129.843C40.9161 129.843 40.7444 129.891 40.5901 129.987C40.4373 130.082 40.3154 130.223 40.2245 130.41C40.1348 130.596 40.0898 130.825 40.0898 131.096C40.0898 131.366 40.1348 131.595 40.2245 131.781C40.3154 131.968 40.4373 132.109 40.5901 132.205C40.7444 132.3 40.9161 132.348 41.1061 132.348C41.2099 132.348 41.3102 132.334 41.4058 132.305C41.5018 132.277 41.5891 132.234 41.6675 132.178C41.7474 132.121 41.8144 132.052 41.8697 131.969C41.9257 131.886 41.9653 131.79 41.9876 131.682H42.3672C42.3386 131.842 42.2865 131.985 42.2109 132.111C42.1353 132.237 42.0417 132.345 41.9292 132.434C41.8172 132.521 41.691 132.588 41.5515 132.634C41.4125 132.68 41.264 132.702 41.1061 132.702C40.8389 132.702 40.6011 132.637 40.3926 132.507C40.1846 132.377 40.0208 132.191 39.9017 131.951C39.7822 131.711 39.7227 131.425 39.7227 131.096C39.7227 130.765 39.7822 130.48 39.9017 130.24C40.0208 130 40.1846 129.814 40.3926 129.684C40.6011 129.554 40.8389 129.488 41.1061 129.488C41.264 129.488 41.4125 129.511 41.5515 129.557C41.691 129.603 41.8172 129.67 41.9292 129.759C42.0417 129.847 42.1353 129.953 42.2109 130.08C42.2865 130.205 42.3386 130.348 42.3672 130.509Z"
            fill="#201600" />
        <path
            d="M45.6266 131.096C45.6266 131.425 45.567 131.711 45.4475 131.951C45.3281 132.191 45.1643 132.377 44.9562 132.507C44.7482 132.637 44.5104 132.702 44.2432 132.702C43.9756 132.702 43.7382 132.637 43.5297 132.507C43.3217 132.377 43.1579 132.191 43.0388 131.951C42.9193 131.711 42.8594 131.425 42.8594 131.096C42.8594 130.765 42.9193 130.48 43.0388 130.24C43.1579 130 43.3217 129.814 43.5297 129.684C43.7382 129.554 43.9756 129.488 44.2432 129.488C44.5104 129.488 44.7482 129.554 44.9562 129.684C45.1643 129.814 45.3281 130 45.4475 130.24C45.567 130.48 45.6266 130.765 45.6266 131.096ZM45.2591 131.096C45.2591 130.825 45.214 130.596 45.1231 130.41C45.0334 130.223 44.9112 130.082 44.7572 129.987C44.6044 129.891 44.4328 129.843 44.2432 129.843C44.0532 129.843 43.8816 129.891 43.7272 129.987C43.5744 130.082 43.4525 130.223 43.3617 130.41C43.2719 130.596 43.2269 130.825 43.2269 131.096C43.2269 131.366 43.2719 131.595 43.3617 131.781C43.4525 131.968 43.5744 132.109 43.7272 132.205C43.8816 132.3 44.0532 132.348 44.2432 132.348C44.4328 132.348 44.6044 132.3 44.7572 132.205C44.9112 132.109 45.0334 131.968 45.1231 131.781C45.214 131.595 45.2591 131.366 45.2591 131.096Z"
            fill="#201600" />
        <path
            d="M46.6414 129.531V132.66H46.2617V129.531H46.6414ZM47.3254 130.955V131.291H46.3659V130.955H47.3254ZM49.9837 131.096C49.9837 131.425 49.9242 131.711 49.8047 131.951C49.6852 132.191 49.5214 132.377 49.3134 132.507C49.1053 132.637 48.8675 132.702 48.6003 132.702C48.3327 132.702 48.0953 132.637 47.8869 132.507C47.6788 132.377 47.5151 132.191 47.3956 131.951C47.2765 131.711 47.2165 131.425 47.2165 131.096C47.2165 130.765 47.2765 130.48 47.3956 130.24C47.5151 130 47.6788 129.814 47.8869 129.684C48.0953 129.554 48.3327 129.488 48.6003 129.488C48.8675 129.488 49.1053 129.554 49.3134 129.684C49.5214 129.814 49.6852 130 49.8047 130.24C49.9242 130.48 49.9837 130.765 49.9837 131.096ZM49.6162 131.096C49.6162 130.825 49.5712 130.596 49.4803 130.41C49.3906 130.223 49.2683 130.082 49.1143 129.987C48.9616 129.891 48.7899 129.843 48.6003 129.843C48.4103 129.843 48.2383 129.891 48.0843 129.987C47.9315 130.082 47.8093 130.223 47.7188 130.41C47.6287 130.596 47.584 130.825 47.584 131.096C47.584 131.366 47.6287 131.595 47.7188 131.781C47.8093 131.968 47.9315 132.109 48.0843 132.205C48.2383 132.3 48.4103 132.348 48.6003 132.348C48.7899 132.348 48.9616 132.3 49.1143 132.205C49.2683 132.109 49.3906 131.968 49.4803 131.781C49.5712 131.595 49.6162 131.366 49.6162 131.096Z"
            fill="#201600" />
        <path
            d="M51.6313 132.702C51.4295 132.702 51.2493 132.668 51.091 132.598C50.9339 132.529 50.8089 132.433 50.7161 132.31C50.6244 132.185 50.5742 132.042 50.5664 131.878H50.9519C50.9602 131.979 50.9946 132.065 51.0561 132.139C51.1173 132.211 51.1972 132.267 51.2963 132.307C51.395 132.347 51.5047 132.366 51.6254 132.366C51.7598 132.366 51.8793 132.343 51.9835 132.296C52.0873 132.249 52.1692 132.184 52.2284 132.101C52.2875 132.017 52.3169 131.92 52.3169 131.81C52.3169 131.695 52.2883 131.594 52.2315 131.507C52.1743 131.418 52.0905 131.349 51.9804 131.299C51.8703 131.249 51.7355 131.224 51.5764 131.224H51.3253V130.888H51.5764C51.7006 130.888 51.81 130.865 51.904 130.821C51.9988 130.776 52.0728 130.713 52.1257 130.631C52.1798 130.55 52.2068 130.454 52.2068 130.344C52.2068 130.238 52.1833 130.146 52.1363 130.067C52.0897 129.989 52.0231 129.928 51.9377 129.884C51.8527 129.84 51.7528 129.818 51.6376 129.818C51.5294 129.818 51.4272 129.838 51.3316 129.878C51.2364 129.916 51.1592 129.973 51.0989 130.047C51.0385 130.121 51.006 130.209 51.0009 130.313H50.6334C50.6397 130.149 50.689 130.006 50.7819 129.882C50.8747 129.758 50.9962 129.662 51.1463 129.592C51.2971 129.523 51.4632 129.488 51.6438 129.488C51.8374 129.488 52.0039 129.528 52.1426 129.606C52.2813 129.683 52.3878 129.786 52.4623 129.913C52.5367 130.04 52.5743 130.178 52.5743 130.326C52.5743 130.502 52.5277 130.652 52.4349 130.776C52.3432 130.9 52.2182 130.986 52.0599 131.034V131.059C52.2578 131.091 52.4125 131.175 52.5238 131.311C52.6347 131.445 52.6903 131.612 52.6903 131.81C52.6903 131.981 52.6441 132.133 52.5512 132.269C52.4595 132.403 52.3338 132.509 52.1747 132.586C52.0156 132.664 51.8346 132.702 51.6313 132.702Z"
            fill="#201600" />
        <path
            d="M1.32471 138.917H0.890625L2.14613 135.504H2.57354L3.82906 138.917H3.39497L2.3732 136.044H2.34649L1.32471 138.917ZM1.48499 137.584H3.23469V137.95H1.48499V137.584Z"
            fill="#201600" />
        <path d="M6.42684 135.503V135.87H4.77733V138.917H4.36328V135.503H6.42684Z" fill="#201600" />
        <path
            d="M7.06641 138.917V135.503H8.22176C8.49002 135.503 8.70926 135.552 8.87958 135.648C9.05099 135.744 9.17789 135.874 9.26024 136.037C9.3426 136.2 9.38377 136.383 9.38377 136.584C9.38377 136.785 9.3426 136.967 9.26024 137.132C9.17898 137.296 9.05322 137.427 8.88291 137.525C8.71263 137.622 8.49445 137.67 8.22846 137.67H7.40033V137.303H8.2151C8.39873 137.303 8.5462 137.272 8.65751 137.208C8.76882 137.145 8.84953 137.059 8.8996 136.952C8.9508 136.843 8.97639 136.72 8.97639 136.584C8.97639 136.447 8.9508 136.325 8.8996 136.217C8.84953 136.109 8.76827 136.025 8.65586 135.964C8.54342 135.902 8.39426 135.87 8.2084 135.87H7.48049V138.917H7.06641Z"
            fill="#201600" />
        <path
            d="M12.9366 137.21C12.9366 137.57 12.8714 137.881 12.7412 138.143C12.611 138.406 12.4323 138.608 12.2053 138.75C11.9782 138.892 11.7189 138.963 11.4273 138.963C11.1357 138.963 10.8763 138.892 10.6492 138.75C10.4222 138.608 10.2435 138.406 10.1133 138.143C9.98308 137.881 9.91797 137.57 9.91797 137.21C9.91797 136.85 9.98308 136.539 10.1133 136.277C10.2435 136.015 10.4222 135.813 10.6492 135.671C10.8763 135.528 11.1357 135.457 11.4273 135.457C11.7189 135.457 11.9782 135.528 12.2053 135.671C12.4323 135.813 12.611 136.015 12.7412 136.277C12.8714 136.539 12.9366 136.85 12.9366 137.21ZM12.5358 137.21C12.5358 136.915 12.4863 136.665 12.3873 136.462C12.2893 136.259 12.1563 136.105 11.9882 136C11.8213 135.896 11.6343 135.844 11.4273 135.844C11.2202 135.844 11.0327 135.896 10.8646 136C10.6977 136.105 10.5647 136.259 10.4656 136.462C10.3677 136.665 10.3187 136.915 10.3187 137.21C10.3187 137.506 10.3677 137.755 10.4656 137.958C10.5647 138.162 10.6977 138.316 10.8646 138.42C11.0327 138.525 11.2202 138.577 11.4273 138.577C11.6343 138.577 11.8213 138.525 11.9882 138.42C12.1563 138.316 12.2893 138.162 12.3873 137.958C12.4863 137.755 12.5358 137.506 12.5358 137.21Z"
            fill="#201600" />
        <path
            d="M16.3811 136.57H15.9671C15.9426 136.452 15.8997 136.347 15.8385 136.257C15.7784 136.167 15.7049 136.091 15.6181 136.03C15.5324 135.968 15.4373 135.922 15.3326 135.89C15.228 135.859 15.1189 135.844 15.0054 135.844C14.7984 135.844 14.6108 135.896 14.4427 136C14.2758 136.105 14.1428 136.259 14.0437 136.462C13.9458 136.665 13.8968 136.915 13.8968 137.21C13.8968 137.506 13.9458 137.755 14.0437 137.958C14.1428 138.162 14.2758 138.316 14.4427 138.42C14.6108 138.525 14.7984 138.577 15.0054 138.577C15.1189 138.577 15.228 138.561 15.3326 138.53C15.4373 138.499 15.5324 138.453 15.6181 138.392C15.7049 138.329 15.7784 138.254 15.8385 138.164C15.8997 138.072 15.9426 137.968 15.9671 137.85H16.3811C16.3499 138.024 16.2932 138.181 16.2108 138.318C16.1285 138.456 16.026 138.573 15.9036 138.67C15.7812 138.765 15.6437 138.838 15.4913 138.888C15.3399 138.938 15.1779 138.963 15.0054 138.963C14.7138 138.963 14.4545 138.892 14.2274 138.75C14.0003 138.608 13.8217 138.406 13.6914 138.143C13.5612 137.881 13.4961 137.57 13.4961 137.21C13.4961 136.85 13.5612 136.539 13.6914 136.277C13.8217 136.015 14.0003 135.813 14.2274 135.671C14.4545 135.528 14.7138 135.457 15.0054 135.457C15.1779 135.457 15.3399 135.482 15.4913 135.532C15.6437 135.582 15.7812 135.655 15.9036 135.752C16.026 135.848 16.1285 135.964 16.2108 136.102C16.2932 136.239 16.3499 136.395 16.3811 136.57Z"
            fill="#201600" />
        <path d="M16.8672 135.87V135.503H19.4316V135.87H18.3564V138.917H17.9424V135.87H16.8672Z" fill="#201600" />
        <path
            d="M20.0703 138.917V135.503H21.2257C21.4939 135.503 21.7132 135.552 21.8835 135.648C22.0549 135.744 22.1818 135.874 22.2641 136.037C22.3465 136.2 22.3877 136.383 22.3877 136.584C22.3877 136.785 22.3465 136.967 22.2641 137.132C22.1829 137.296 22.0571 137.427 21.8868 137.525C21.7165 137.622 21.4984 137.67 21.2324 137.67H20.4042V137.303H21.219C21.4026 137.303 21.5501 137.272 21.6614 137.208C21.7727 137.145 21.8534 137.059 21.9035 136.952C21.9547 136.843 21.9803 136.72 21.9803 136.584C21.9803 136.447 21.9547 136.325 21.9035 136.217C21.8534 136.109 21.7722 136.025 21.6598 135.964C21.5473 135.902 21.3982 135.87 21.2123 135.87H20.4844V138.917H20.0703Z"
            fill="#201600" />
        <path
            d="M22.8443 138.917H22.4102L23.6657 135.503H24.0931L25.3486 138.917H24.9145L23.8927 136.043H23.866L22.8443 138.917ZM23.0045 137.583H24.7542V137.95H23.0045V137.583Z"
            fill="#201600" />
        <path
            d="M26.0852 135.503L26.9667 136.923H26.9934L27.8749 135.503H28.3624L27.2873 137.21L28.3624 138.917H27.8749L26.9934 137.523H26.9667L26.0852 138.917H25.5977L26.6996 137.21L25.5977 135.503H26.0852Z"
            fill="#201600" />
        <path
            d="M31.7295 137.21C31.7295 137.57 31.6644 137.881 31.5341 138.143C31.4039 138.406 31.2253 138.608 30.9982 138.75C30.7712 138.892 30.5118 138.963 30.2202 138.963C29.9286 138.963 29.6693 138.892 29.4422 138.75C29.2151 138.608 29.0365 138.406 28.9062 138.143C28.7761 137.881 28.7109 137.57 28.7109 137.21C28.7109 136.85 28.7761 136.539 28.9062 136.277C29.0365 136.015 29.2151 135.813 29.4422 135.671C29.6693 135.528 29.9286 135.457 30.2202 135.457C30.5118 135.457 30.7712 135.528 30.9982 135.671C31.2253 135.813 31.4039 136.015 31.5341 136.277C31.6644 136.539 31.7295 136.85 31.7295 137.21ZM31.3288 137.21C31.3288 136.915 31.2793 136.665 31.1802 136.462C31.0823 136.259 30.9492 136.105 30.7812 136C30.6142 135.896 30.4273 135.844 30.2202 135.844C30.0132 135.844 29.8256 135.896 29.6576 136C29.4906 136.105 29.3576 136.259 29.2585 136.462C29.1606 136.665 29.1116 136.915 29.1116 137.21C29.1116 137.506 29.1606 137.755 29.2585 137.958C29.3576 138.162 29.4906 138.316 29.6576 138.42C29.8256 138.525 30.0132 138.577 30.2202 138.577C30.4273 138.577 30.6142 138.525 30.7812 138.42C30.9492 138.316 31.0823 138.162 31.1802 137.958C31.2793 137.755 31.3288 137.506 31.3288 137.21Z"
            fill="#201600" />
        <path
            d="M32.4219 138.917V135.503H33.6173C33.8555 135.503 34.0519 135.545 34.2066 135.627C34.3614 135.708 34.4765 135.817 34.5522 135.955C34.6279 136.092 34.6658 136.244 34.6658 136.41C34.6658 136.557 34.6396 136.678 34.5873 136.774C34.5361 136.869 34.4682 136.944 34.3836 137C34.3001 137.056 34.2094 137.097 34.1115 137.124V137.157C34.2161 137.163 34.3213 137.2 34.427 137.267C34.5328 137.333 34.6212 137.429 34.6925 137.553C34.7637 137.678 34.7993 137.83 34.7993 138.01C34.7993 138.181 34.7604 138.335 34.6825 138.472C34.6045 138.608 34.4816 138.716 34.3135 138.797C34.1454 138.876 33.9267 138.917 33.6573 138.917H32.4219ZM32.8359 138.55H33.6573C33.9278 138.55 34.1198 138.498 34.2334 138.393C34.348 138.288 34.4053 138.16 34.4053 138.01C34.4053 137.894 34.3758 137.788 34.3168 137.69C34.2578 137.591 34.1738 137.512 34.0647 137.453C33.9557 137.393 33.8265 137.363 33.6774 137.363H32.8359V138.55ZM32.8359 137.004H33.6039C33.7286 137.004 33.841 136.979 33.9412 136.93C34.0425 136.881 34.1226 136.812 34.1816 136.724C34.2417 136.635 34.2718 136.53 34.2718 136.41C34.2718 136.26 34.2195 136.133 34.1148 136.029C34.0102 135.923 33.8444 135.87 33.6173 135.87H32.8359V137.004Z"
            fill="#201600" />
        <path
            d="M39.4646 138.55L39.4179 139.723H39.0105V138.917H38.6833V138.55H39.4646ZM35.4844 135.503H35.8984V138.536H37.1005V135.503H37.5146V138.536H38.7167V135.503H39.1307V138.917H35.4844V135.503Z"
            fill="#201600" />
        <path
            d="M40.0938 135.503H40.5012V138.19H40.5345L42.4045 135.503H42.8049V138.917H42.3912V136.237H42.3575L40.4946 138.917H40.0938V135.503Z"
            fill="#201600" />
        <path
            d="M45.6392 138.917L44.4638 137.35H44.043V138.917H43.6289V135.503H44.043V136.984H44.2233L45.5926 135.503H46.0866L44.704 137.004L46.1332 138.917H45.6392Z"
            fill="#201600" />
        <path
            d="M49.3973 137.21C49.3973 137.57 49.3322 137.881 49.2022 138.143C49.0717 138.406 48.8934 138.608 48.6662 138.75C48.4389 138.892 48.18 138.963 47.8881 138.963C47.5966 138.963 47.3372 138.892 47.11 138.75C46.8831 138.608 46.7045 138.406 46.574 138.143C46.4439 137.881 46.3789 137.57 46.3789 137.21C46.3789 136.85 46.4439 136.539 46.574 136.277C46.7045 136.015 46.8831 135.813 47.11 135.671C47.3372 135.528 47.5966 135.457 47.8881 135.457C48.18 135.457 48.4389 135.528 48.6662 135.671C48.8934 135.813 49.0717 136.015 49.2022 136.277C49.3322 136.539 49.3973 136.85 49.3973 137.21ZM48.9969 137.21C48.9969 136.915 48.9471 136.665 48.848 136.462C48.75 136.259 48.6172 136.105 48.4491 136C48.2822 135.896 48.0953 135.844 47.8881 135.844C47.6812 135.844 47.4936 135.896 47.3255 136C47.1586 136.105 47.0254 136.259 46.9266 136.462C46.8287 136.665 46.7797 136.915 46.7797 137.21C46.7797 137.506 46.8287 137.755 46.9266 137.958C47.0254 138.162 47.1586 138.316 47.3255 138.42C47.4936 138.525 47.6812 138.577 47.8881 138.577C48.0953 138.577 48.2822 138.525 48.4491 138.42C48.6172 138.316 48.75 138.162 48.848 137.958C48.9471 137.755 48.9969 137.506 48.9969 137.21Z"
            fill="#201600" />
        <path
            d="M50.0898 138.917V135.503H51.2856C51.5238 135.503 51.7201 135.545 51.8748 135.627C52.0296 135.708 52.1448 135.817 52.2204 135.955C52.296 136.092 52.334 136.244 52.334 136.41C52.334 136.557 52.3078 136.678 52.2553 136.774C52.2043 136.869 52.1362 136.944 52.0519 137C51.9681 137.056 51.8776 137.097 51.7796 137.124V137.157C51.8842 137.163 51.9892 137.2 52.095 137.267C52.2008 137.333 52.2894 137.429 52.3607 137.553C52.432 137.678 52.4676 137.83 52.4676 138.01C52.4676 138.181 52.4284 138.335 52.3505 138.472C52.2725 138.608 52.1499 138.716 51.9818 138.797C51.8137 138.876 51.5947 138.917 51.3256 138.917H50.0898ZM50.504 138.55H51.3256C51.5959 138.55 51.7879 138.498 51.9015 138.393C52.0163 138.288 52.0735 138.16 52.0735 138.01C52.0735 137.894 52.0441 137.788 51.9849 137.69C51.9262 137.591 51.8419 137.512 51.733 137.453C51.6237 137.393 51.4948 137.363 51.3455 137.363H50.504V138.55ZM50.504 137.004H51.2723C51.3969 137.004 51.5093 136.979 51.6092 136.93C51.7107 136.881 51.7906 136.812 51.8498 136.724C51.9097 136.635 51.9399 136.53 51.9399 136.41C51.9399 136.26 51.8878 136.133 51.7828 136.029C51.6782 135.923 51.5124 135.87 51.2856 135.87H50.504V137.004Z"
            fill="#201600" />
    </g>
    <defs>
        <linearGradient id="paint0_linear_2625_18245" x1="26.5238" y1="139.71" x2="29.2231" y2="-31.3699"
            gradientUnits="userSpaceOnUse">
            <stop offset="0.14" stop-color="#516AAE" />
            <stop offset="0.66" stop-color="#6086C4" />
        </linearGradient>
        <linearGradient id="paint1_linear_2625_18245" x1="27.0267" y1="179.969" x2="22.8899" y2="8.94461"
            gradientUnits="userSpaceOnUse">
            <stop offset="0.21" stop-color="#B24B42" />
            <stop offset="0.91" stop-color="#D24A43" />
        </linearGradient>
        <linearGradient id="paint2_linear_2625_18245" x1="26.661" y1="71.935" x2="26.734" y2="6.20112"
            gradientUnits="userSpaceOnUse">
            <stop offset="0.02" stop-color="#BDBEC1" />
            <stop offset="0.74" stop-color="#E3E2E4" />
        </linearGradient>
        <clipPath id="clip0_2625_18245">
            <rect width="52.4022" height="140" fill="white" transform="translate(0.300781)" />
        </clipPath>
    </defs>
</svg>