<svg width="285" height="285" viewBox="0 0 285 285" fill="none" xmlns="http://www.w3.org/2000/svg">
    <g style="mix-blend-mode:multiply">
        <path
            d="M285 121.964V172.05C285 198.8 270.375 223.847 244.774 240.752L205.224 266.907C187.554 278.608 165.243 285 142.5 285C119.757 285 97.4456 278.608 79.7674 266.939L40.1769 240.744C14.6653 223.798 0 198.8 0 172.05V23.8097L48.8979 11.628C79.6534 3.89229 111.117 0 142.5 0C161.44 0 180.739 1.425 199.524 4.24243L144.837 27.7346C144.047 27.6939 143.29 27.6939 142.5 27.6939C112.819 27.6939 83.733 31.3093 55.9903 38.3284L27.6939 45.4697V172.034C27.6939 189.419 37.8806 206.006 55.5913 217.439L95.1819 243.634C107.942 252.29 125.18 257.249 142.5 257.249C159.82 257.249 177.018 252.29 189.777 243.634L229.409 217.479C247.119 206.006 257.306 189.419 257.306 172.034V154.389L285 121.964Z"
            fill="#24ADEA" fill-opacity="0.08" />
        <path fill-rule="evenodd" clip-rule="evenodd"
            d="M112.533 130.001L180.819 155.024C189.361 158.151 198.92 155.643 204.8 148.746L227.543 122.094L277.971 63.0259C279.372 61.3729 280.479 59.6548 281.326 57.8878L281.375 57.7494C281.709 56.9514 282.002 56.1371 282.303 55.3228L282.385 55.1111C286.472 42.0581 276.611 27.9872 263.151 27.0264C259.862 26.8228 256.393 27.3521 252.875 28.8748L111.458 89.5472C106.955 91.4608 103.633 94.5388 101.434 98.1379C94.7977 108.992 98.6655 124.92 112.533 130.001Z"
            fill="#24ADEA" fill-opacity="0.08" />
    </g>
</svg>