<svg width="280" height="280" viewBox="0 0 280 280" fill="none" xmlns="http://www.w3.org/2000/svg">
    <g style="mix-blend-mode:multiply">
        <path fill-rule="evenodd" clip-rule="evenodd"
            d="M36.7897 237.568L96.348 181.584C103.796 174.584 114.787 172.952 123.907 177.48L159.17 194.952L237.344 233.656C239.52 234.736 241.424 236.024 243.08 237.48L243.192 237.6C243.888 238.28 244.552 238.984 245.216 239.696L245.392 239.88C255.367 251.544 251.376 270.432 237.896 277.368C234.584 279.032 230.76 280.016 226.456 280L53.5252 279.808C48.0294 279.816 43.2375 278.112 39.3816 275.368C27.71 267.088 24.6861 248.936 36.7897 237.568Z"
            fill="#E0D117" fill-opacity="0.1" />
        <path
            d="M140.02 0C62.6782 0 0 62.6799 0 139.992V212.44C1.96794 209.952 4.13588 207.576 6.51181 205.368L28.1272 185.04V140C28.1272 78.3199 78.3098 28.136 140.02 28.136C201.69 28.136 251.873 78.3199 251.873 140V191.512L256.977 194.04C262.56 196.856 267.704 200.272 272.24 204.288L273.848 205.696L274.936 206.824C275.736 207.624 276.544 208.472 277.344 209.312L278.352 210.4L278.992 211.16C279.352 211.56 279.672 211.96 280 212.408V140C279.992 62.6799 217.314 0 140.02 0Z"
            fill="#E0D117" fill-opacity="0.1" />
    </g>
</svg>