<svg width="280" height="280" viewBox="0 0 280 280" fill="none" xmlns="http://www.w3.org/2000/svg">
    <g style="mix-blend-mode:multiply">
        <path fill-rule="evenodd" clip-rule="evenodd"
            d="M256.766 280H179.142C169.438 280 160.766 273.984 157.398 264.92L144.358 229.896L115.438 152.272C114.638 150.104 114.158 147.976 113.95 145.896V145.736C113.91 144.816 113.91 143.888 113.91 142.968V142.728C114.59 128.168 129.638 117.696 143.478 121.664C146.846 122.664 150.134 124.472 153.102 127.28L272.646 239.888C276.454 243.456 278.662 247.752 279.542 252.16C282.238 265.48 272.526 280 256.766 280Z"
            fill="#12B548" fill-opacity="0.05" />
        <path fill-rule="evenodd" clip-rule="evenodd"
            d="M157.328 0H0V157.336C0 222.808 51.264 276.28 115.888 279.808L104.776 250.04C60.688 240.496 27.712 201.256 27.712 154.28V27.72H155.24C208.832 27.72 252.28 71.168 252.28 124.76V160.064L280 186.176V122.672C280 54.92 225.08 0 157.328 0Z"
            fill="#12B548" fill-opacity="0.05" />
    </g>
</svg>