<svg width="33" height="32" viewBox="0 0 33 32" fill="none" xmlns="http://www.w3.org/2000/svg">
<path fill-rule="evenodd" clip-rule="evenodd" d="M15.9 31C9.11179 31 5.71766 31 3.60883 28.8912C1.5 26.7823 1.5 23.3882 1.5 16.5999L1.5 15.3999C1.5 8.61168 1.5 5.21756 3.60883 3.10871C5.71766 1 9.11178 1 15.9 1L17.1 1C23.8882 1 27.2823 1 29.3912 3.10871C31.5 5.21752 31.5 8.61168 31.5 15.3999V16.5999C31.5 23.3882 31.5 26.7823 29.3912 28.8912C27.2823 31 23.8882 31 17.1 31H15.9Z" fill="#0077FF"/>
<path d="M18.2676 7.67801C18.2676 6.71598 19.2 6.01018 20.1621 6.24441L26.2549 7.72781C27.1018 7.93412 27.6953 8.67289 27.6953 9.5198V19.4983C27.695 20.4602 26.7628 21.1651 25.8008 20.9309L22.9814 20.2444C22.6734 20.168 22.4541 19.9023 22.4434 19.593L22.0625 11.8196C21.974 10.6567 21.5143 9.92314 20.5879 9.65066C20.5358 9.63537 20.48 9.65593 20.4492 9.69949C20.418 9.74377 20.43 9.80527 20.4736 9.83816C20.7026 10.0107 21.409 10.4959 21.4092 11.4661L21.4082 19.8606L19.708 19.4475C18.8611 19.2413 18.2677 18.5033 18.2676 17.6565V7.67801Z" fill="#FDFDFD"/>
<path d="M11.9805 9.59012C11.9805 8.62809 12.9139 7.92229 13.876 8.15652L19.9688 9.63992C20.8157 9.84623 21.4092 10.585 21.4092 11.4319V21.4104C21.4089 22.3723 20.4767 23.0772 19.5146 22.843L16.6953 22.1565C16.3873 22.0802 16.168 21.8144 16.1572 21.5052L15.7764 13.7317C15.6879 12.5688 15.2282 11.8353 14.3018 11.5628C14.2497 11.5475 14.1939 11.568 14.1631 11.6116C14.1319 11.6559 14.1439 11.7174 14.1875 11.7503C14.4165 11.9228 15.1228 12.408 15.123 13.3782L15.1221 21.7727L13.4219 21.3596C12.575 21.1534 11.9806 20.4154 11.9805 19.5686V9.59012Z" fill="#FDFDFD"/>
<path d="M7.13651 23.4484C6.28932 23.2391 5.69531 22.4895 5.69531 21.6297V11.5008C5.69531 10.5243 6.62816 9.80813 7.59041 10.0459L13.6841 11.5516C14.5313 11.7609 15.1253 12.5105 15.1253 13.3703V23.4992C15.1253 24.4757 14.1924 25.1919 13.2302 24.9541L7.13651 23.4484Z" fill="#FDFDFD"/>
</svg>
