<svg width="540" height="540" viewBox="0 0 540 540" fill="none" xmlns="http://www.w3.org/2000/svg">
<path d="M540 231.089V325.99C540 376.673 512.29 424.131 463.783 456.161L388.846 505.718C355.366 527.889 313.092 540 270 540C226.908 540 184.634 527.889 151.138 505.779L76.1246 456.146C27.7869 424.039 0 376.673 0 325.99V45.1131L92.6486 22.032C150.922 7.37486 210.538 0 270 0C305.887 0 342.453 2.7 378.046 8.03829L274.428 52.5497C272.931 52.4726 271.497 52.4726 270 52.4726C213.763 52.4726 158.652 59.3229 106.087 72.6223L52.4726 86.1531V325.959C52.4726 358.899 71.7737 390.327 105.331 411.989L180.345 461.623C204.521 478.023 237.183 487.419 270 487.419C302.817 487.419 335.402 478.023 359.578 461.623L434.669 412.066C468.226 390.327 487.527 358.899 487.527 325.959V292.526L540 231.089Z" fill="#24ADEA" fill-opacity="0.05"/>
<path fill-rule="evenodd" clip-rule="evenodd" d="M213.221 246.317L342.605 293.729C358.789 299.654 376.903 294.902 388.042 281.834L431.134 231.336L526.683 119.417C529.337 116.285 531.435 113.03 533.04 109.682L533.132 109.42C533.765 107.908 534.32 106.365 534.891 104.822L535.045 104.421C542.791 79.6889 524.107 53.0283 498.603 51.2077C492.37 50.822 485.797 51.8249 479.132 54.71L211.184 169.668C202.652 173.294 196.358 179.126 192.192 185.945C179.618 206.512 186.946 236.69 213.221 246.317Z" fill="#24ADEA" fill-opacity="0.05"/>
</svg>
