<svg width="215" height="215" viewBox="0 0 215 215" fill="none" xmlns="http://www.w3.org/2000/svg">
    <g>
        <path
            d="M108.217 55.8937C109.618 51.1515 114.593 48.4427 119.336 49.8398C124.081 51.2396 126.798 56.2226 125.399 60.9677L106.791 124.061C105.39 128.804 100.407 131.522 95.6633 130.124C90.9207 128.724 88.2131 123.739 89.6094 118.996L108.217 55.8937Z"
            fill="#0037EB" />
        <path
            d="M135.092 69.8123C138.273 66.4354 143.457 66.0756 147.06 68.8413L147.76 69.4362L166.359 86.9591C168.139 88.6363 169.158 90.9697 169.176 93.4154C169.193 95.8619 168.212 98.2129 166.455 99.9155L144.75 120.947L144.059 121.55C140.496 124.366 135.311 124.077 132.083 120.745C128.64 117.192 128.723 111.521 132.275 108.078L147.244 93.5642L135.468 82.4712L134.838 81.8151C131.863 78.3841 131.912 73.1894 135.092 69.8123Z"
            fill="#0037EB" />
        <path
            d="M70.258 66.0243C73.8111 62.5815 79.4828 62.6639 82.9257 66.2168C86.3654 69.7692 86.2743 75.442 82.7244 78.8844L67.7472 93.3979L79.5313 104.491L80.1699 105.156C83.1393 108.587 83.0865 113.784 79.9075 117.159C76.7266 120.532 71.5411 120.893 67.9397 118.13L67.2486 117.535L48.6408 100.012C46.8609 98.335 45.8422 95.9918 45.8238 93.5467C45.8076 91.1036 46.7914 88.7568 48.5446 87.0554L70.258 66.0243Z"
            fill="#0037EB" />
        <path fill-rule="evenodd" clip-rule="evenodd"
            d="M181.922 17.917C191.293 17.917 197.081 26.1277 197.083 33.8828V146.063C197.082 153.818 191.295 162.029 181.922 162.029H132.573L138.644 179.167H144.707C149.654 179.167 153.665 183.178 153.665 188.125C153.665 193.073 149.654 197.084 144.707 197.084H70.2843C65.3367 197.084 61.3259 193.073 61.3259 188.125C61.3259 183.178 65.3367 179.167 70.2843 179.167H76.3644L82.427 162.029H33.0774C23.7041 162.029 17.9173 153.817 17.9165 146.063V33.8828C17.9182 26.1282 23.7053 17.917 33.0774 17.917H181.922ZM95.3746 179.167H119.634L113.571 162.029H101.437L95.3746 179.167ZM35.8332 144.112H179.167V35.8337H35.8332V144.112Z"
            fill="#0037EB" />
    </g>
</svg>