<svg width="258" height="202" viewBox="0 0 258 202" fill="none" xmlns="http://www.w3.org/2000/svg">
    <g style="mix-blend-mode:multiply">
        <path fill-rule="evenodd" clip-rule="evenodd"
            d="M33.9001 218.902L88.7788 167.317C95.6414 160.867 105.769 159.363 114.173 163.535L146.665 179.634L218.697 215.297C220.701 216.292 222.456 217.479 223.982 218.821L224.085 218.931C224.726 219.558 225.338 220.206 225.95 220.862L226.112 221.032C235.304 231.78 231.626 249.183 219.205 255.574C216.153 257.108 212.63 258.014 208.664 258L49.3207 257.823C44.2567 257.83 39.8413 256.26 36.2884 253.732C25.5338 246.102 22.7474 229.376 33.9001 218.902Z"
            fill="#E0D117" fill-opacity="0.24" />
        <path
            d="M129.018 0C57.7535 0 0 57.7551 0 128.992V195.748C1.81332 193.455 3.81092 191.266 6.00017 189.232L25.9172 170.501V129C25.9172 72.1662 72.1568 25.9253 129.018 25.9253C185.843 25.9253 232.083 72.1662 232.083 129V176.464L236.786 178.794C241.931 181.388 246.67 184.536 250.85 188.237L252.332 189.534L253.334 190.573C254.071 191.31 254.816 192.092 255.553 192.866L256.482 193.868L257.071 194.569C257.403 194.937 257.698 195.306 258 195.719V129C257.993 57.7551 200.239 0 129.018 0Z"
            fill="#E0D117" fill-opacity="0.24" />
    </g>
</svg>