<svg width="335" height="62" viewBox="0 0 335 62" fill="none" xmlns="http://www.w3.org/2000/svg">
    <g clip-path="url(#clip0_2625_18185)">
        <path d="M258.792 0.579834H0.820312V60.0839H258.792V0.579834Z" fill="#245335" />
        <path d="M7.80192 0.579834H0.867188V60.0839H7.80192V0.579834Z" fill="#FFC734" />
        <path d="M32.3242 30.6411L36.9033 26.2919V23.3284L32.3242 27.6563V30.6411Z" fill="#FFC734" />
        <path d="M32.3242 19.5975L36.9033 15.2482V12.4553L32.3242 16.8046V19.5975Z" fill="#FFC734" />
        <path d="M32.3242 23.2645L36.9033 18.8939V16.1223L32.3242 20.4502V23.2645Z" fill="#FFC734" />
        <path
            d="M31.0255 12.4979L30.409 11.9222V5.03589H29.7046V11.2613L29.1103 10.707V5.03589H28.4277V10.0461L27.8113 9.47045V5.03589H27.1289V11.6024L31.708 15.9517V5.03589H31.0255V12.4979Z"
            fill="#FFC734" />
        <path d="M32.3242 26.9099L36.9033 22.5607V19.7678L32.3242 24.0957V26.9099Z" fill="#FFC734" />
        <path d="M27.1289 26.2704L31.708 30.6411V27.6563L27.1289 23.3284V26.2704Z" fill="#FFC734" />
        <path
            d="M36.2208 9.47045L35.6045 10.0461V5.03589H34.9219V10.707L34.3056 11.2613V5.03589H33.6232V11.9222L33.0066 12.4979V5.03589H32.3242V15.9517L36.9033 11.6024V5.03589H36.2208V9.47045Z"
            fill="#FFC734" />
        <path d="M27.1289 15.2482L31.708 19.5975V16.8046L27.1289 12.4553V15.2482Z" fill="#FFC734" />
        <path d="M27.1289 18.8939L31.708 23.2645V20.4502L27.1289 16.1223V18.8939Z" fill="#FFC734" />
        <path d="M27.1289 22.5393L31.708 26.9099V24.0957L27.1289 19.7678V22.5393Z" fill="#FFC734" />
        <path
            d="M42.4724 27.5499C42.4724 28.211 41.922 28.744 41.2396 28.744C40.5572 28.744 40.0068 28.211 40.0068 27.5499C40.0068 27.3155 40.0727 27.0809 40.2049 26.8891L40.557 26.3135C40.3369 26.1429 40.2049 25.8658 40.2049 25.5672C40.2049 25.2688 40.3589 25.0129 40.557 24.821L40.2049 24.2667C40.0727 24.0749 40.0068 23.8616 40.0068 23.6057C40.0068 22.9449 40.5572 22.4118 41.2396 22.4118C41.922 22.4118 42.4724 22.9449 42.4724 23.6057C42.4724 24.0962 41.9001 25.2688 41.9001 25.2688V25.9083C41.8779 25.9083 42.4724 27.0596 42.4724 27.5499ZM54.4046 24.8423H43.7492H43.2649C43.5071 24.4799 43.6392 24.0749 43.6392 23.6057C43.6392 22.3265 42.5605 21.282 41.2396 21.282C39.9187 21.282 38.8398 22.3265 38.8398 23.6057C38.8398 24.1174 39.016 24.5652 39.2802 24.9489C39.0821 25.0769 38.9279 25.3113 38.9279 25.5672C38.9279 25.823 39.0601 26.0576 39.2802 26.1855C38.994 26.5692 38.8398 27.0384 38.8398 27.5286C38.8398 28.8078 39.9187 29.8525 41.2396 29.8525C42.5605 29.8525 43.6392 28.8078 43.6392 27.5286C43.6392 27.0809 43.5071 26.6545 43.2649 26.292H45.2904H51.5646V26.7825H50.75V27.4646H51.5646V28.1682H50.75V29.4688H51.5646V28.8718H52.7755V29.4688H53.5899V28.1682H52.7755V27.4646H53.5899V26.7825H52.7755V26.292H54.4265C54.7347 26.292 54.9989 26.0362 54.9989 25.7165V25.3753C54.9769 25.0982 54.7127 24.8423 54.4046 24.8423Z"
            fill="#FFC734" />
        <path
            d="M22.9688 23.4353V26.3348C22.9688 29.1064 24.2016 30.8758 24.9281 31.5794C25.3465 31.9631 29.5953 36.0354 29.6614 36.0992C30.9823 37.3571 31.2024 37.7623 31.5107 38.4658V35.2678C31.5107 32.4109 30.0137 31.3023 29.2432 30.5774C27.4599 28.8718 26.249 27.7632 25.2804 26.825C23.4532 25.0342 22.9688 23.4353 22.9688 23.4353Z"
            fill="white" />
        <path
            d="M29.2432 37.7193C27.4379 36.0137 26.249 34.9051 25.2804 33.9669C23.4532 32.176 22.9688 30.9822 22.9688 30.9822V33.4767C22.9688 36.2483 24.2677 38.0177 24.9281 38.7426C25.3465 39.1265 29.6174 43.1773 29.6833 43.2411C31.0042 44.499 31.2465 45.096 31.5327 45.7996V42.4097C31.5107 39.5527 30.0137 38.4442 29.2432 37.7193Z"
            fill="white" />
        <path
            d="M38.687 10.3872C38.3567 10.3872 38.0265 10.3872 37.7184 10.4085V11.773C38.0485 11.7517 38.3567 11.7517 38.687 11.7517C49.2762 11.7517 57.84 20.0664 57.84 30.3C57.84 40.5549 49.2542 48.8485 38.687 48.8485C28.0977 48.8485 19.5338 40.5336 19.5338 30.3C19.5338 24.6076 22.1756 19.5334 26.3365 16.1223V14.374C21.3612 17.9984 18.125 23.7762 18.125 30.2787C18.125 41.2798 27.3272 50.1917 38.687 50.1917C50.0467 50.1917 59.249 41.2798 59.249 30.2787C59.249 19.299 50.0467 10.3872 38.687 10.3872Z"
            fill="white" />
        <path d="M53.2422 40.6825C53.5723 40.2563 53.8585 39.8298 54.1447 39.3821V36.717H53.2422V40.6825Z"
            fill="white" />
        <path
            d="M55.8606 35.7368C55.9926 35.3529 56.1026 34.9692 56.1907 34.5642H53.2188V35.2678H53.6589C54.4736 35.2678 55.3541 35.2463 55.8606 35.7368Z"
            fill="white" />
        <path d="M36.0254 34.4788H35.2109V42.4097H36.0254V34.4788Z" fill="white" />
        <path
            d="M50.1796 38.5507L49.299 37.7406L50.1796 33.3486V38.5507ZM33.3381 32.9436H36.0019C36.6843 32.9436 37.1688 33.0927 37.455 33.3486C37.7412 33.6045 37.8732 34.0735 37.8732 34.7345V42.1538C37.8732 42.8361 37.7412 43.2838 37.455 43.5609C37.0366 43.9659 36.2661 43.9659 35.6056 43.9659L35.2094 43.9447V47.4624C35.4736 47.5052 35.7376 47.5477 36.0238 47.5905V44.7123C37.2568 44.7123 38.0713 44.3071 38.4456 43.4969V47.8036H38.7098H39.2161V34.8836C39.2161 34.2015 39.3702 33.7323 39.6344 33.4552C39.8985 33.178 40.383 33.0502 41.0654 33.0502C41.7478 33.0502 42.7606 32.9436 43.2888 33.4552C43.553 33.7323 43.6851 34.2015 43.6851 34.8836V38.6786H41.8579V34.6065H41.0654V47.633C41.3296 47.6117 41.5937 47.569 41.8579 47.5264V39.4462H43.6851V47.1213C44.0593 47.0147 44.4336 46.9081 44.8079 46.7803V39.7446C44.8079 38.9559 45.006 38.3589 45.8426 38.0817L44.9179 33.1993H46.7672L47.0534 38.5294H47.2957L47.6038 33.1993H49.5632L48.5285 38.0817C49.4091 38.3801 49.5632 38.8919 49.5632 39.7446V44.2858C50.1135 43.8806 50.6199 43.4757 51.1262 43.0067V33.1568H56.5419C56.586 32.9222 56.608 32.6878 56.6519 32.4319H43.9493L44.1254 33.3061C43.7292 32.6025 42.9587 32.24 41.8359 32.24H41.0434C39.7004 32.24 38.8859 32.7516 38.5776 33.7963C38.2914 32.709 37.4328 32.176 36.0238 32.176H32.5234V46.7588C32.7877 46.8441 33.0519 46.9294 33.3381 47.0147V32.9436Z"
            fill="white" />
        <path d="M46.7461 45.9703C47.0323 45.8424 47.3185 45.6931 47.5827 45.5438V39.5317H46.7461V45.9703Z"
            fill="white" />
        <path d="M286.048 0.579834H275.766V60.0839H286.048V0.579834Z" fill="#3B8251" />
        <path d="M265.528 0.579834H258.613V60.0839H265.528V0.579834Z" fill="#3B8251" />
        <path d="M303.264 0.579834H296.352V60.0839H303.264V0.579834Z" fill="#67A757" />
        <path d="M323.846 0.579834H316.934V60.0839H323.846V0.579834Z" fill="#9DCD4C" />
        <path d="M289.48 0.579834H286.047V60.0839H289.48V0.579834Z" fill="#9DCD4C" />
        <path d="M272.333 0.579834H268.898V60.0839H272.333V0.579834Z" fill="#245335" />
        <path d="M313.501 0.579834H310.066V60.0839H313.501V0.579834Z" fill="#FFC734" />
        <path d="M334.087 0.579834H330.652V60.0839H334.087V0.579834Z" fill="#FFC734" />
        <path
            d="M125.23 30.0227C125.23 25.7801 128.467 22.8806 132.562 22.8806C135.093 22.8806 136.854 24.0532 137.977 25.6095L136.48 26.4197C135.666 25.2683 134.191 24.4156 132.562 24.4156C129.435 24.4156 127.058 26.7395 127.058 30.0227C127.058 33.3061 129.435 35.63 132.562 35.63C134.191 35.63 135.666 34.7984 136.48 33.6258L137.999 34.4359C136.81 36.0137 135.093 37.165 132.562 37.165C128.467 37.165 125.23 34.2654 125.23 30.0227Z"
            fill="white" />
        <path d="M141.518 36.9309V28.2963H138.523V26.9319H146.141V28.2963H143.125V36.9309H141.518Z" fill="white" />
        <path
            d="M155.671 31.8989C155.671 29.6816 154.438 28.04 152.347 28.04C151.092 28.04 149.815 28.7648 149.265 29.639V34.1588C149.815 35.033 151.07 35.7791 152.347 35.7791C154.438 35.7791 155.671 34.1161 155.671 31.8989ZM149.287 35.4167V40.7466H147.68V26.9314H149.287V28.4237C150.035 27.4004 151.312 26.6755 152.765 26.6755C155.495 26.6755 157.366 28.6583 157.366 31.9202C157.366 35.1608 155.473 37.1863 152.765 37.1863C151.356 37.1648 150.123 36.5253 149.287 35.4167Z"
            fill="white" />
        <path
            d="M165.846 34.8199V32.9225C165.229 32.091 164.128 31.6859 163.006 31.6859C161.509 31.6859 160.452 32.6028 160.452 33.8819C160.452 35.1398 161.509 36.0565 163.006 36.0565C164.128 36.0565 165.229 35.6301 165.846 34.8199ZM165.846 36.9307V35.8007C164.987 36.7174 163.82 37.1866 162.411 37.1866C160.672 37.1866 158.801 36.0565 158.801 33.8819C158.801 31.6433 160.672 30.5773 162.411 30.5773C163.82 30.5773 165.009 31.0037 165.846 31.9417V30.1296C165.846 28.7864 164.745 28.019 163.226 28.019C161.993 28.019 160.98 28.4453 160.056 29.4047L159.307 28.3174C160.43 27.2088 161.751 26.6545 163.446 26.6545C165.625 26.6545 167.453 27.6138 167.453 30.0443V36.9094H165.846V36.9307Z"
            fill="white" />
        <path
            d="M176.809 36.9309L173.705 32.8161L170.623 36.9309H168.773L172.736 31.7928L168.994 26.9319H170.843L173.705 30.7268L176.589 26.9319H178.438L174.696 31.7928L178.68 36.9309H176.809Z"
            fill="white" />
        <path
            d="M187.905 31.9202C187.905 29.8949 186.673 28.0613 184.472 28.0613C182.269 28.0613 181.037 29.8949 181.037 31.9202C181.037 33.9669 182.269 35.8004 184.472 35.8004C186.673 35.8004 187.905 33.9669 187.905 31.9202ZM179.363 31.9202C179.363 29.0207 181.323 26.6755 184.472 26.6755C187.618 26.6755 189.578 29.0207 189.578 31.9202C189.578 34.8197 187.618 37.1863 184.472 37.1863C181.323 37.1648 179.363 34.8197 179.363 31.9202Z"
            fill="white" />
        <path
            d="M198.8 34.0314C198.8 33.2213 198.227 32.475 197.127 32.475H193.253V35.5665H197.127C198.161 35.545 198.8 34.9694 198.8 34.0314ZM198.602 29.7248C198.602 28.8506 198.051 28.2963 197.06 28.2963H193.253V31.1105H197.06C198.073 31.1105 198.602 30.4922 198.602 29.7248ZM191.645 36.9309V26.9319H197.325C199.13 26.9319 200.23 27.9977 200.23 29.4902C200.23 30.6841 199.438 31.4942 198.557 31.7714C199.614 32.0272 200.428 33.072 200.428 34.2233C200.428 35.8436 199.328 36.9309 197.413 36.9309H191.645Z"
            fill="white" />
        <path
            d="M209.438 34.8199V32.9225C208.82 32.091 207.72 31.6859 206.598 31.6859C205.101 31.6859 204.044 32.6028 204.044 33.8819C204.044 35.1398 205.101 36.0565 206.598 36.0565C207.72 36.0565 208.82 35.6301 209.438 34.8199ZM209.438 36.9307V35.8007C208.579 36.7174 207.412 37.1866 206.025 37.1866C204.264 37.1866 202.414 36.0565 202.414 33.8819C202.414 31.6433 204.264 30.5773 206.025 30.5773C207.434 30.5773 208.622 31.0037 209.438 31.9417V30.1296C209.438 28.7864 208.314 28.019 206.839 28.019C205.607 28.019 204.595 28.4453 203.669 29.4047L202.922 28.3174C204.044 27.2088 205.364 26.6545 207.061 26.6545C209.24 26.6545 211.066 27.6138 211.066 30.0443V36.9094H209.438V36.9307Z"
            fill="white" />
        <path
            d="M213.707 36.9309V26.9319H215.314V31.0892H220.708V26.9319H222.293V36.9309H220.708V32.4537H215.314V36.9309H213.707Z"
            fill="white" />
        <path
            d="M224.977 36.9309V26.9319H226.585V34.5643L232.001 26.9319H233.586V36.9309H231.977V29.1278L226.518 36.9309H224.977Z"
            fill="white" />
        <path
            d="M240.719 27.9547C238.518 27.9547 237.439 29.7669 237.351 31.2806H244.132C244.109 29.7881 243.075 27.9547 240.719 27.9547ZM235.656 31.9202C235.656 29.0207 237.791 26.6755 240.741 26.6755C243.867 26.6755 245.694 29.042 245.694 32.048V32.4319H237.329C237.461 34.3294 238.826 35.8857 241.049 35.8857C242.216 35.8857 243.426 35.438 244.242 34.6278L245.011 35.6513C243.977 36.6533 242.59 37.1863 240.896 37.1863C237.857 37.1648 235.656 35.033 235.656 31.9202Z"
            fill="white" />
        <path
            d="M65.8555 36.8875V23.456H70.3464C72.0416 23.456 73.1644 23.52 73.6707 23.6479C74.4633 23.8612 75.1238 24.2875 75.674 24.9698C76.2025 25.6519 76.4887 26.5261 76.4887 27.5921C76.4887 28.4235 76.3345 29.1058 76.0263 29.6814C75.7182 30.2357 75.3219 30.6834 74.8376 31.0033C74.3531 31.3232 73.891 31.5363 73.3845 31.6429C72.7241 31.7709 71.7554 31.8347 70.4785 31.8347H68.6513V36.8875H65.8555ZM68.6513 25.7159V29.5323H70.1923C71.2931 29.5323 72.0416 29.4683 72.3939 29.319C72.7682 29.1699 73.0544 28.9565 73.2745 28.6581C73.4946 28.3597 73.5826 28.0185 73.5826 27.6134C73.5826 27.1231 73.4286 26.7179 73.1424 26.3982C72.8341 26.0784 72.4598 25.8865 72.0196 25.8012C71.6893 25.7372 71.0069 25.7159 69.9942 25.7159H68.6513ZM87.166 31.9413L89.8959 32.7729C89.4775 34.2439 88.795 35.3312 87.8264 36.0348C86.8578 36.7384 85.6248 37.1008 84.1499 37.1008C82.3005 37.1008 80.8037 36.4825 79.6148 35.2672C78.4259 34.0521 77.8315 32.389 77.8315 30.2784C77.8315 28.0398 78.4259 26.3129 79.6148 25.0763C80.8037 23.8397 82.3666 23.2214 84.326 23.2214C86.0212 23.2214 87.408 23.7119 88.4649 24.6714C89.1032 25.2469 89.5655 26.0571 89.8959 27.1444L87.1218 27.784C86.9679 27.0804 86.6156 26.5261 86.0871 26.1424C85.5808 25.7372 84.9424 25.5453 84.1938 25.5453C83.1813 25.5453 82.3227 25.9078 81.7062 26.6114C81.0677 27.3362 80.7376 28.4875 80.7376 30.0866C80.7376 31.7922 81.0457 32.986 81.6842 33.7109C82.3227 34.4358 83.1371 34.7982 84.1279 34.7982C84.8764 34.7982 85.5147 34.5638 86.0652 34.1161C86.5495 33.6469 86.9457 32.922 87.166 31.9413ZM90.1379 36.8875L94.8711 29.8733L90.5783 23.456H93.8584L96.6324 27.7627L99.3623 23.456H102.598L98.2835 29.98L103.017 36.8875H99.6485L96.5663 32.2399L93.4843 36.8875H90.1379ZM104.536 23.456H114.905V25.7159H107.332V28.8287H111.074C112.109 28.8287 112.967 28.9565 113.65 29.1911C114.332 29.4255 114.905 29.8947 115.389 30.5556C115.873 31.2164 116.116 31.984 116.116 32.8795C116.116 33.7749 115.873 34.5638 115.389 35.2034C114.905 35.843 114.354 36.2907 113.738 36.5251C113.122 36.7597 112.241 36.8875 111.074 36.8875H104.536V23.456ZM107.332 34.6276H110.062C110.92 34.6276 111.536 34.5851 111.889 34.4998C112.241 34.4145 112.549 34.2226 112.813 33.924C113.078 33.6256 113.21 33.2845 113.21 32.8367C113.21 32.2186 112.967 31.7709 112.527 31.4723C112.065 31.1952 111.294 31.0459 110.194 31.0459H107.354V34.6276H107.332ZM117.591 31.1952H122.83V32.8582H117.591V31.1952Z"
            fill="white" />
    </g>
    <defs>
        <clipPath id="clip0_2625_18185">
            <rect width="335" height="61.3072" fill="white" transform="translate(0 0.346436)" />
        </clipPath>
    </defs>
</svg>