<svg width="280" height="282" viewBox="0 0 280 282" fill="none" xmlns="http://www.w3.org/2000/svg">
    <g style="mix-blend-mode:multiply">
        <path fill-rule="evenodd" clip-rule="evenodd"
            d="M36.9369 238.737L96.4089 182.79C103.849 175.791 114.817 174.166 123.929 178.682L159.137 196.138L237.193 234.813C239.369 235.894 241.265 237.184 242.921 238.633L243.033 238.753C243.729 239.434 244.393 240.138 245.057 240.843L245.233 241.027C255.193 252.686 251.209 271.559 237.745 278.485C234.441 280.143 230.625 281.128 226.321 281.12L53.6489 280.927C48.1609 280.935 43.3769 279.238 39.5209 276.483C27.8809 268.228 24.8569 250.099 36.9369 238.737Z"
            fill="#9712FF" fill-opacity="0.05" />
        <path
            d="M201.64 76.2287V0.879883H78.36V76.2287C31.968 99.0656 0 146.893 0 202.032C0 204.69 0.088 207.397 0.256 210.007C1.816 208.237 3.464 206.548 5.192 204.898L26.616 184.72C31.68 151.369 51.08 122.711 78.368 105.271C86.216 100.203 94.688 96.1109 103.672 93.1562V66.692V26.207H176.336V66.692V93.1562C185.32 96.1109 193.8 100.203 201.64 105.271C230.696 123.848 250.904 155.253 254.192 191.43L257.776 193.2C263.552 196.074 268.824 199.613 273.504 203.753L274.936 205.018L276.032 206.115C277 207.084 277.928 208.061 278.856 209.07L279.744 209.959C279.912 207.34 280 204.682 280 202.024C280 146.853 247.992 99.0255 201.64 76.2287Z"
            fill="#9712FF" fill-opacity="0.05" />
    </g>
</svg>