<svg width="540" height="542" viewBox="0 0 540 542" fill="none" xmlns="http://www.w3.org/2000/svg">
<path fill-rule="evenodd" clip-rule="evenodd" d="M71.2341 459.493L185.93 351.595C200.279 338.098 221.431 334.963 239.004 343.673L306.906 377.338L457.442 451.926C461.639 454.01 465.295 456.497 468.489 459.292L468.705 459.524C470.047 460.836 471.328 462.195 472.608 463.554L472.948 463.909C492.156 486.394 484.473 522.792 458.507 536.15C452.135 539.347 444.775 541.246 436.475 541.231L103.464 540.86C92.8804 540.876 83.6541 537.602 76.2175 532.289C53.769 516.368 47.937 481.406 71.2341 459.493Z" fill="#9712FF" fill-opacity="0.05"/>
<path d="M388.877 146.084V0.76825H151.123V146.084C61.6526 190.126 0 282.365 0 388.704C0 393.831 0.169714 399.05 0.493714 404.085C3.50229 400.672 6.68057 397.413 10.0131 394.232L51.3309 355.317C61.0971 290.998 98.5114 235.729 151.138 202.094C166.274 192.319 182.613 184.428 199.939 178.73V127.692V49.6134H340.077V127.692V178.73C357.403 184.428 373.757 192.319 388.877 202.094C444.914 237.921 483.886 298.488 490.227 368.258L497.139 371.67C508.279 377.214 518.446 384.04 527.472 392.024L530.234 394.464L532.347 396.58C534.214 398.448 536.004 400.332 537.794 402.278L539.506 403.992C539.83 398.942 540 393.815 540 388.688C540 282.288 478.27 190.049 388.877 146.084Z" fill="#9712FF" fill-opacity="0.05"/>
</svg>
