<svg width="540" height="540" viewBox="0 0 540 540" fill="none" xmlns="http://www.w3.org/2000/svg">
    <path fill-rule="evenodd" clip-rule="evenodd"
        d="M495.195 540H345.492C326.777 540 310.053 528.398 303.557 510.917L278.409 443.371L222.634 293.668C221.092 289.486 220.166 285.382 219.765 281.371V281.062C219.688 279.288 219.688 277.498 219.688 275.724V275.261C220.999 247.181 250.02 226.985 276.712 234.638C283.207 236.566 289.548 240.053 295.272 245.469L525.821 462.641C533.165 469.523 537.423 477.808 539.121 486.309C544.32 511.997 525.59 540 495.195 540Z"
        fill="#12B548" fill-opacity="0.05" />
    <path fill-rule="evenodd" clip-rule="evenodd"
        d="M303.418 0H0V303.434C0 429.701 98.8663 532.826 223.498 539.63L202.068 482.22C117.041 463.814 53.4446 388.137 53.4446 297.54V53.46H299.391C402.747 53.46 486.54 137.253 486.54 240.609V308.695L540 359.054V236.582C540 105.917 434.083 0 303.418 0Z"
        fill="#12B548" fill-opacity="0.05" />
</svg>