<svg width="540" height="540" viewBox="0 0 540 540" fill="none" xmlns="http://www.w3.org/2000/svg">
    <path fill-rule="evenodd" clip-rule="evenodd"
        d="M70.9521 458.167L185.815 350.198C200.178 336.698 221.376 333.55 238.964 342.283L306.972 375.979L457.735 450.622C461.932 452.705 465.604 455.189 468.797 457.997L469.013 458.228C470.356 459.54 471.636 460.897 472.917 462.271L473.256 462.625C492.495 485.12 484.796 521.547 458.8 534.924C452.413 538.133 445.038 540.03 436.738 540L103.228 539.629C92.6287 539.645 83.3872 536.358 75.9509 531.066C53.4412 515.098 47.6094 480.091 70.9521 458.167Z"
        fill="#E0D117" fill-opacity="0.1" />
    <path
        d="M270.039 0C120.879 0 0 120.883 0 269.984V409.705C3.79532 404.907 7.97634 400.324 12.5585 396.066L54.2453 356.862V270C54.2453 151.045 151.026 54.2622 270.039 54.2622C388.974 54.2622 485.755 151.045 485.755 270V369.344L495.598 374.219C506.367 379.65 516.287 386.238 525.035 393.983L528.136 396.699L530.234 398.874C531.777 400.417 533.335 402.053 534.878 403.673L536.822 405.771L538.056 407.237C538.75 408.008 539.367 408.779 540 409.643V270C539.985 120.883 419.105 0 270.039 0Z"
        fill="#E0D117" fill-opacity="0.1" />
</svg>