<svg width="32" height="32" viewBox="0 0 32 32" fill="none" xmlns="http://www.w3.org/2000/svg">
<path d="M23.7682 16.9103C23.7966 14.6992 24.9774 12.6069 26.8505 11.4488C25.6688 9.75153 23.6895 8.67541 21.6303 8.61062C19.4339 8.37877 17.3046 9.93236 16.1854 9.93236C15.0445 9.93236 13.3213 8.63364 11.4656 8.67204C9.04691 8.75062 6.79204 10.1336 5.61528 12.2602C3.0857 16.6647 4.97253 23.1378 7.39566 26.698C8.608 28.4413 10.0249 30.3887 11.8788 30.3196C13.693 30.244 14.3706 29.1562 16.5605 29.1562C18.7301 29.1562 19.3658 30.3196 21.2574 30.2757C23.2041 30.2439 24.4306 28.5246 25.6005 26.7648C26.4715 25.5226 27.1418 24.1497 27.5865 22.6969C25.2987 21.7238 23.7709 19.4084 23.7682 16.9103Z" fill="#FDFDFD"/>
<path d="M20.1954 6.26924C21.2568 4.98778 21.7797 3.34068 21.6531 1.67773C20.0315 1.84902 18.5335 2.62847 17.4577 3.86076C16.4058 5.06477 15.8583 6.68289 15.9618 8.28228C17.584 8.29907 19.1788 7.54076 20.1954 6.26924Z" fill="#FDFDFD"/>
</svg>
