<svg width="24" height="24" viewBox="0 0 24 24" fill="none" xmlns="http://www.w3.org/2000/svg">
<path d="M8.2308 2.56816C9.38396 2.56816 10.4421 2.98043 11.259 3.66272C11.6485 3.98817 11.6974 4.56398 11.3681 4.94893C11.0388 5.33388 10.456 5.38224 10.0665 5.05678C9.57055 4.64253 8.9312 4.39362 8.2308 4.39362C6.65957 4.39371 5.38583 5.65233 5.38575 7.20492C5.38575 7.30845 5.39107 7.41055 5.40198 7.51065C5.4035 7.52458 5.40202 7.53865 5.40289 7.55254L5.42995 7.71655C5.52778 8.1804 5.75444 8.53489 6.00636 8.79329C6.31555 9.11035 6.61498 9.23565 6.68109 9.25055C7.17825 9.36275 7.48992 9.85198 7.37656 10.3433C7.26307 10.8345 6.76779 11.1414 6.27065 11.0297C5.78346 10.9199 5.17917 10.5761 4.67584 10.0599C4.43687 9.81477 4.21067 9.51929 4.02276 9.17478C3.33336 9.99992 2.84747 11.2495 2.84739 12.5984C2.84739 13.2747 2.97179 14.0358 3.19829 14.7314C3.21144 14.7718 3.2261 14.8114 3.23978 14.8508C3.43728 14.5416 3.67909 14.246 3.96863 14.0201C4.36898 13.7078 4.95053 13.7752 5.26668 14.1708C5.58265 14.5663 5.51448 15.141 5.11423 15.4534C4.98502 15.5542 4.80623 15.7775 4.63525 16.121C4.48232 16.4283 4.36888 16.7682 4.3078 17.0649C4.30085 17.1521 4.29608 17.2405 4.29608 17.3297C4.2963 19.1792 5.81412 20.6783 7.68597 20.6784C9.55796 20.6784 11.0756 19.1793 11.0759 17.3297V11.117C11.0759 10.613 11.4896 10.2044 11.9995 10.2043C12.5097 10.2043 12.9233 10.6129 12.9232 11.117V17.3109C12.9234 17.3171 12.9241 17.3235 12.9241 17.3297C12.9244 19.1793 14.4421 20.6784 16.314 20.6784C18.1859 20.6784 19.7037 19.1792 19.7039 17.3297C19.7039 17.2423 19.6997 17.1556 19.6931 17.0703C19.6323 16.7723 19.5186 16.4301 19.3648 16.121C19.2365 15.8633 19.104 15.6729 18.9913 15.5514L18.8858 15.4534L18.8145 15.3919C18.4785 15.07 18.4372 14.5415 18.7333 14.1708C19.0297 13.8 19.559 13.7183 19.9538 13.9666L20.0314 14.0201L20.1883 14.1547C20.4089 14.3575 20.5988 14.5992 20.7593 14.85C20.7729 14.8106 20.7886 14.7716 20.8017 14.7314C21.0282 14.0358 21.1526 13.2746 21.1526 12.5984C21.1526 12.014 21.0592 11.432 20.8892 10.8888C20.7385 10.4073 21.0118 9.89606 21.499 9.74702C21.9862 9.59812 22.5036 9.86732 22.6545 10.3487C22.8774 11.0608 23 11.8251 23 12.5984C23 13.4774 22.8418 14.4269 22.5607 15.2903C22.3273 16.007 21.9905 16.7135 21.5495 17.2824C21.5497 17.298 21.5513 17.3141 21.5513 17.3297C21.551 20.1874 19.2062 22.5038 16.314 22.5039C14.5239 22.5039 12.9441 21.616 11.9995 20.2622C11.0549 21.6159 9.47591 22.5039 7.68597 22.5039C4.79386 22.5037 2.44891 20.1874 2.44869 17.3297C2.44869 17.314 2.44945 17.298 2.44959 17.2824C2.00882 16.7135 1.67353 16.0069 1.4402 15.2903C1.15906 14.4268 1 13.4775 1 12.5984C1.00009 10.4629 1.95283 8.26573 3.54016 7.12113C3.58548 4.59903 5.66761 2.56824 8.2308 2.56816Z" fill="#FDFDFD"/>
<path fill-rule="evenodd" clip-rule="evenodd" d="M15.3209 2.49417C15.749 1.13646 17.7819 1.17215 18.1154 2.61807L18.156 2.79456C18.5265 4.39879 19.8349 5.6268 21.4755 5.90891C23.0539 6.18066 23.054 8.4199 21.4755 8.69167C19.8349 8.97384 18.5264 10.2018 18.156 11.806L18.1154 11.9825C17.7707 13.4747 15.6161 13.4644 15.2848 11.97L15.2514 11.8185C14.8947 10.2086 13.5876 8.9718 11.9445 8.689C10.3684 8.41806 10.3682 6.18254 11.9445 5.91158L12.2485 5.8474C13.7472 5.47262 14.9171 4.29051 15.2514 2.78119L15.2848 2.63055L15.3209 2.49417ZM16.7037 4.25012C16.106 5.61546 15.0047 6.70414 13.6323 7.2994C15.0049 7.89455 16.1059 8.98418 16.7037 10.3496C17.3074 8.98274 18.414 7.89351 19.7905 7.2994C18.414 6.70518 17.3073 5.61702 16.7037 4.25012Z" fill="#FDFDFD"/>
</svg>
