<svg width="24" height="24" viewBox="0 0 24 24" fill="none" xmlns="http://www.w3.org/2000/svg">
<path d="M3 2C3.55228 2 4 2.44772 4 3V19C4 19.2652 4.10543 19.5195 4.29297 19.707C4.48051 19.8946 4.73478 20 5 20H21C21.5523 20 22 20.4477 22 21C22 21.5523 21.5523 22 21 22H5C4.20435 22 3.44151 21.6837 2.87891 21.1211C2.3163 20.5585 2 19.7957 2 19V3C2 2.44772 2.44772 2 3 2Z" fill="#FDFDFD"/>
<path d="M18 7.83301C18.6443 7.83301 19.167 8.35567 19.167 9V17C19.167 17.6443 18.6443 18.167 18 18.167C17.3557 18.167 16.833 17.6443 16.833 17V9C16.833 8.35567 17.3557 7.83301 18 7.83301Z" fill="#FDFDFD"/>
<path d="M8.00098 13C8.55326 13 9.00098 13.4477 9.00098 14V17C9.00098 17.5523 8.55326 18 8.00098 18C7.44869 18 7.00098 17.5523 7.00098 17V14C7.00098 13.4477 7.44869 13 8.00098 13Z" fill="#FDFDFD"/>
<path d="M12.999 4C13.5513 4 13.999 4.44772 13.999 5V17C13.999 17.5523 13.5513 18 12.999 18C12.4467 18 11.999 17.5523 11.999 17V5C11.999 4.44772 12.4467 4 12.999 4Z" fill="#FDFDFD"/>
</svg>
