<svg width="40" height="40" viewBox="0 0 40 40" fill="none" xmlns="http://www.w3.org/2000/svg">
<path d="M0 20C0 8.95431 8.95431 0 20 0C31.0457 0 40 8.95431 40 20C40 31.0457 31.0457 40 20 40C8.95431 40 0 31.0457 0 20Z" fill="#1F9854"/>
<path d="M27.2929 13.293C27.6834 12.9025 28.3164 12.9025 28.707 13.293C29.0973 13.6836 29.0974 14.3166 28.707 14.7071L17.707 25.7071C17.3165 26.0976 16.6834 26.0975 16.2929 25.7071L11.2929 20.7071C10.9024 20.3166 10.9024 19.6835 11.2929 19.293C11.659 18.9269 12.238 18.9043 12.6308 19.2247L12.707 19.293L16.9999 23.586L27.2929 13.293Z" fill="#FDFDFD"/>
</svg>
