<svg width="24" height="24" viewBox="0 0 24 24" fill="none" xmlns="http://www.w3.org/2000/svg">
<path fill-rule="evenodd" clip-rule="evenodd" d="M13.2247 1.02267C13.5174 0.968539 13.8192 1.00245 14.0909 1.11935L14.2051 1.17501L14.3145 1.23947C14.527 1.37746 14.701 1.56779 14.8204 1.79122L14.876 1.90548L14.921 2.02462C15.0141 2.30501 15.0221 2.60802 14.9434 2.89474C14.9399 2.90753 14.9367 2.92115 14.9327 2.9338L13.0128 8.95333L12.9962 9.00021H19.9991C20.3764 8.99947 20.7468 9.10538 21.0665 9.30587C21.3868 9.50696 21.6433 9.79583 21.8067 10.1369C21.9699 10.4781 22.0336 10.859 21.9893 11.2346C21.9449 11.6103 21.7941 11.9661 21.5557 12.26C21.5372 12.2828 21.5176 12.3052 21.4971 12.3264L11.5967 22.5266L11.5958 22.5256C11.377 22.7595 11.0903 22.9193 10.7745 22.9777C10.44 23.0396 10.094 22.9859 9.794 22.8254C9.49423 22.6649 9.25728 22.4064 9.12311 22.094C8.98924 21.7816 8.96559 21.4324 9.05572 21.1047L9.06646 21.0656L10.9864 15.0461L11.003 15.0002H3.99908C3.62206 15.0007 3.25205 14.894 2.93268 14.6936C2.61259 14.4925 2.35569 14.2045 2.19244 13.8635C2.02928 13.5222 1.96544 13.1405 2.00982 12.7649C2.05436 12.3893 2.20516 12.0332 2.44342 11.7395C2.46192 11.7167 2.48158 11.6941 2.50201 11.6731L12.4024 1.47384C12.6211 1.23994 12.9089 1.08113 13.2247 1.02267ZM4.00201 13.0002H10.9991C11.3215 12.9996 11.6398 13.0771 11.9258 13.2258C12.2126 13.375 12.4598 13.5915 12.6446 13.8567C12.8293 14.122 12.9469 14.4295 12.9874 14.7502C13.0257 15.0547 12.9898 15.363 12.8897 15.6526L12.8926 15.6535L11.626 19.6242L19.9971 11.0002H12.9991C12.677 11.0006 12.3591 10.9233 12.0733 10.7746C11.7865 10.6253 11.5393 10.4081 11.3546 10.1428C11.17 9.87754 11.0522 9.57079 11.0118 9.25021C10.9735 8.94539 11.008 8.6358 11.1085 8.34591H11.1065L12.3721 4.37423L4.00201 13.0002Z" fill="#FDFDFD"/>
</svg>
