<svg xmlns="http://www.w3.org/2000/svg">

    <symbol id="ai-science-spark" viewBox="0 0 24 24" fill="none">
        <path fill-rule="evenodd" clip-rule="evenodd"
            d="M2.74039 5.47692C3.67386 4.54184 5.1307 4.61482 6.46891 5.02477C7.86679 5.45305 9.474 6.3421 11.089 7.55797C11.1582 7.60651 11.2219 7.66647 11.2756 7.73766C11.2947 7.76316 11.3125 7.7899 11.3283 7.81676C11.334 7.82644 11.3387 7.83716 11.3439 7.84704C11.3509 7.86021 11.3572 7.87365 11.3634 7.88707C11.368 7.89695 11.3729 7.90732 11.3771 7.91735C11.4143 8.00624 11.4368 8.09912 11.4416 8.19274V8.28063C11.4333 8.43958 11.3783 8.59804 11.2756 8.73473C11.2673 8.74566 11.2578 8.75557 11.2492 8.76598C11.2426 8.77388 11.2356 8.78173 11.2287 8.78942C11.2152 8.80446 11.2011 8.81856 11.1867 8.83239C11.1824 8.83646 11.1783 8.84108 11.174 8.84508C11.1571 8.86069 11.1402 8.87604 11.1222 8.89C11.1192 8.89235 11.1155 8.89453 11.1125 8.89684C10.2358 9.55851 9.34083 10.3367 8.46598 11.2132C7.75409 11.9265 7.10965 12.6519 6.5402 13.3675C7.10966 14.0832 7.75405 14.8085 8.46598 15.5218C9.17766 16.2349 9.90138 16.8801 10.6154 17.4506C11.3296 16.8801 12.0539 16.235 12.7658 15.5218C13.6406 14.6453 14.4169 13.7478 15.0773 12.8695C15.102 12.8366 15.129 12.8058 15.1574 12.7777C15.1631 12.7721 15.169 12.7666 15.175 12.7611L15.1916 12.7464C15.224 12.7178 15.2583 12.6921 15.2941 12.6693C15.2993 12.666 15.3045 12.6618 15.3097 12.6586C15.3257 12.6489 15.342 12.6397 15.3586 12.6312C15.3664 12.6272 15.375 12.6242 15.383 12.6205C15.3953 12.6146 15.4075 12.6081 15.4201 12.6029C15.4332 12.5974 15.4469 12.593 15.4601 12.5882C15.4689 12.5851 15.4777 12.5823 15.4865 12.5795C15.5006 12.5749 15.5152 12.5705 15.5295 12.5668C15.5414 12.5637 15.5535 12.5615 15.5656 12.5589C15.5801 12.5559 15.595 12.5534 15.6095 12.5511C15.6199 12.5495 15.6304 12.5475 15.6408 12.5463C15.655 12.5446 15.6695 12.5423 15.6838 12.5414H15.758C15.771 12.5417 15.784 12.5414 15.797 12.5423C15.8097 12.5433 15.8225 12.5448 15.8351 12.5463C15.8488 12.5479 15.8625 12.5498 15.8761 12.5521C15.8932 12.555 15.9101 12.5589 15.9269 12.5629C15.9311 12.5638 15.9355 12.5638 15.9396 12.5648C16.0903 12.6028 16.2315 12.6837 16.3429 12.8041L16.3976 12.8705L16.84 13.4789C17.8359 14.8974 18.5667 16.2913 18.9425 17.5228C19.3517 18.8637 19.4248 20.3239 18.4914 21.2591C17.8869 21.8646 17.0522 22.0425 16.2209 21.9925C15.388 21.9424 14.4561 21.6611 13.4963 21.224C12.5841 20.8085 11.6091 20.2333 10.6154 19.5238C9.62165 20.2332 8.64658 20.8086 7.73454 21.224C6.77492 21.661 5.8436 21.9414 5.0109 21.9916C4.17947 22.0416 3.3449 21.8637 2.74039 21.2582C2.13605 20.6524 1.958 19.8159 2.00797 18.9828C2.05813 18.1484 2.33838 17.2148 2.77457 16.2533C3.18918 15.3395 3.76386 14.3631 4.47184 13.3675C3.76401 12.3721 3.18909 11.3954 2.77457 10.4818C2.33833 9.52016 2.05803 8.58676 2.00797 7.75231C1.95801 6.91913 2.13584 6.08264 2.74039 5.47692ZM5.5275 14.7455C5.00962 15.5138 4.58911 16.2542 4.27848 16.9388C3.89031 17.7945 3.69108 18.5221 3.65739 19.0824C3.62376 19.6436 3.75802 19.9374 3.90836 20.0882C4.0589 20.2389 4.35211 20.3729 4.91227 20.3392C5.47152 20.3055 6.19768 20.1062 7.05192 19.7172C7.73504 19.406 8.4728 18.9839 9.23942 18.4652C8.58686 17.925 7.93579 17.3317 7.29801 16.6927C6.65971 16.0532 6.06698 15.3999 5.5275 14.7455ZM15.7013 14.7455C15.1634 15.3981 14.5728 16.0524 13.9338 16.6927C13.2957 17.332 12.6433 17.9249 11.9904 18.4652C12.7574 18.9843 13.4964 19.4058 14.1798 19.7172C15.034 20.1061 15.7603 20.3055 16.3195 20.3392C16.8793 20.3729 17.1719 20.2388 17.3224 20.0882C17.5611 19.8491 17.7372 19.2354 17.3625 18.0072C17.0764 17.0698 16.5125 15.9488 15.7013 14.7455ZM5.98551 6.60778C4.75963 6.2323 4.14704 6.40872 3.90836 6.64782C3.75801 6.7986 3.62379 7.09154 3.65739 7.6527C3.691 8.21299 3.89021 8.94032 4.27848 9.79625C4.58908 10.4809 5.00963 11.2213 5.5275 11.9896C6.06692 11.3353 6.65979 10.6818 7.29801 10.0423C7.93692 9.40224 8.58834 8.80979 9.23942 8.27086C8.03908 7.45877 6.92064 6.89427 5.98551 6.60778Z"
            fill="currentColor" />
        <path fill-rule="evenodd" clip-rule="evenodd"
            d="M10.7726 11.8382C11.546 11.917 12.1493 12.5719 12.1496 13.3675C12.1494 14.2162 11.4633 14.9043 10.6164 14.9047C9.82194 14.9047 9.16755 14.3 9.08903 13.5248L9.08121 13.3675L9.08903 13.2103C9.1678 12.4353 9.82214 11.8304 10.6164 11.8304L10.7726 11.8382ZM10.6164 13.2494C10.5514 13.2494 10.4976 13.3025 10.4972 13.3675L10.507 13.4144C10.5251 13.4565 10.5677 13.4857 10.6164 13.4857C10.6648 13.4854 10.7068 13.4564 10.7248 13.4144L10.7336 13.3675L10.7248 13.3216C10.7129 13.2936 10.6902 13.2712 10.6623 13.2591L10.6164 13.2494Z"
            fill="currentColor" />
        <path fill-rule="evenodd" clip-rule="evenodd"
            d="M15.925 2.98278C16.2014 1.71919 17.9488 1.67303 18.3273 2.85387L18.3595 2.97204L18.3918 3.11461C18.6804 4.38282 19.7016 5.3544 20.9806 5.5775C22.3402 5.81478 22.3401 7.7699 20.9806 8.00719C19.7016 8.23031 18.6804 9.20097 18.3918 10.4691L18.3595 10.6127C18.0631 11.9129 16.2108 11.9065 15.925 10.6029L15.8976 10.4798C15.6195 9.20719 14.6005 8.22855 13.3195 8.00524C11.9624 7.7683 11.9625 5.81645 13.3195 5.57946L13.5568 5.52868C14.7252 5.23254 15.637 4.2979 15.8976 3.10485L15.925 2.98278ZM17.1457 4.52379C16.6711 5.51431 15.8742 6.31383 14.8918 6.79235C15.8741 7.27079 16.6711 8.06958 17.1457 9.05993C17.6242 8.06894 18.4245 7.27016 19.4093 6.79235C18.4244 6.31443 17.6242 5.51502 17.1457 4.52379Z"
            fill="currentColor" />
    </symbol>

    <symbol id="apple" viewBox="0 0 32 32" fill="none">
        <path
            d="M23.7682 16.9103C23.7966 14.6992 24.9774 12.6069 26.8505 11.4488C25.6688 9.75153 23.6895 8.67541 21.6303 8.61062C19.4339 8.37877 17.3046 9.93236 16.1854 9.93236C15.0445 9.93236 13.3213 8.63364 11.4656 8.67204C9.04691 8.75062 6.79204 10.1336 5.61528 12.2602C3.0857 16.6647 4.97253 23.1378 7.39566 26.698C8.608 28.4413 10.0249 30.3887 11.8788 30.3196C13.693 30.244 14.3706 29.1562 16.5605 29.1562C18.7301 29.1562 19.3658 30.3196 21.2574 30.2757C23.2041 30.2439 24.4306 28.5246 25.6005 26.7648C26.4715 25.5226 27.1418 24.1497 27.5865 22.6969C25.2987 21.7238 23.7709 19.4084 23.7682 16.9103Z"
            fill="currentColor" />
        <path
            d="M20.1954 6.26924C21.2568 4.98778 21.7797 3.34068 21.6531 1.67773C20.0315 1.84902 18.5335 2.62847 17.4577 3.86076C16.4058 5.06477 15.8583 6.68289 15.9618 8.28228C17.584 8.29907 19.1788 7.54076 20.1954 6.26924Z"
            fill="currentColor" />
    </symbol>

    <symbol id="artificial" viewBox="0 0 24 24" fill="none">
        <path
            d="M8.2308 2.56816C9.38396 2.56816 10.4421 2.98043 11.259 3.66272C11.6485 3.98817 11.6974 4.56398 11.3681 4.94893C11.0388 5.33388 10.456 5.38224 10.0665 5.05678C9.57055 4.64253 8.9312 4.39362 8.2308 4.39362C6.65957 4.39371 5.38583 5.65233 5.38575 7.20492C5.38575 7.30845 5.39107 7.41055 5.40198 7.51065C5.4035 7.52458 5.40202 7.53865 5.40289 7.55254L5.42995 7.71655C5.52778 8.1804 5.75444 8.53489 6.00636 8.79329C6.31555 9.11035 6.61498 9.23565 6.68109 9.25055C7.17825 9.36275 7.48992 9.85198 7.37656 10.3433C7.26307 10.8345 6.76779 11.1414 6.27065 11.0297C5.78346 10.9199 5.17917 10.5761 4.67584 10.0599C4.43687 9.81477 4.21067 9.51929 4.02276 9.17478C3.33336 9.99992 2.84747 11.2495 2.84739 12.5984C2.84739 13.2747 2.97179 14.0358 3.19829 14.7314C3.21144 14.7718 3.2261 14.8114 3.23978 14.8508C3.43728 14.5416 3.67909 14.246 3.96863 14.0201C4.36898 13.7078 4.95053 13.7752 5.26668 14.1708C5.58265 14.5663 5.51448 15.141 5.11423 15.4534C4.98502 15.5542 4.80623 15.7775 4.63525 16.121C4.48232 16.4283 4.36888 16.7682 4.3078 17.0649C4.30085 17.1521 4.29608 17.2405 4.29608 17.3297C4.2963 19.1792 5.81412 20.6783 7.68597 20.6784C9.55796 20.6784 11.0756 19.1793 11.0759 17.3297V11.117C11.0759 10.613 11.4896 10.2044 11.9995 10.2043C12.5097 10.2043 12.9233 10.6129 12.9232 11.117V17.3109C12.9234 17.3171 12.9241 17.3235 12.9241 17.3297C12.9244 19.1793 14.4421 20.6784 16.314 20.6784C18.1859 20.6784 19.7037 19.1792 19.7039 17.3297C19.7039 17.2423 19.6997 17.1556 19.6931 17.0703C19.6323 16.7723 19.5186 16.4301 19.3648 16.121C19.2365 15.8633 19.104 15.6729 18.9913 15.5514L18.8858 15.4534L18.8145 15.3919C18.4785 15.07 18.4372 14.5415 18.7333 14.1708C19.0297 13.8 19.559 13.7183 19.9538 13.9666L20.0314 14.0201L20.1883 14.1547C20.4089 14.3575 20.5988 14.5992 20.7593 14.85C20.7729 14.8106 20.7886 14.7716 20.8017 14.7314C21.0282 14.0358 21.1526 13.2746 21.1526 12.5984C21.1526 12.014 21.0592 11.432 20.8892 10.8888C20.7385 10.4073 21.0118 9.89606 21.499 9.74702C21.9862 9.59812 22.5036 9.86732 22.6545 10.3487C22.8774 11.0608 23 11.8251 23 12.5984C23 13.4774 22.8418 14.4269 22.5607 15.2903C22.3273 16.007 21.9905 16.7135 21.5495 17.2824C21.5497 17.298 21.5513 17.3141 21.5513 17.3297C21.551 20.1874 19.2062 22.5038 16.314 22.5039C14.5239 22.5039 12.9441 21.616 11.9995 20.2622C11.0549 21.6159 9.47591 22.5039 7.68597 22.5039C4.79386 22.5037 2.44891 20.1874 2.44869 17.3297C2.44869 17.314 2.44945 17.298 2.44959 17.2824C2.00882 16.7135 1.67353 16.0069 1.4402 15.2903C1.15906 14.4268 1 13.4775 1 12.5984C1.00009 10.4629 1.95283 8.26573 3.54016 7.12113C3.58548 4.59903 5.66761 2.56824 8.2308 2.56816Z"
            fill="currentColor" />
        <path fill-rule="evenodd" clip-rule="evenodd"
            d="M15.3209 2.49417C15.749 1.13646 17.7819 1.17215 18.1154 2.61807L18.156 2.79456C18.5265 4.39879 19.8349 5.6268 21.4755 5.90891C23.0539 6.18066 23.054 8.4199 21.4755 8.69167C19.8349 8.97384 18.5264 10.2018 18.156 11.806L18.1154 11.9825C17.7707 13.4747 15.6161 13.4644 15.2848 11.97L15.2514 11.8185C14.8947 10.2086 13.5876 8.9718 11.9445 8.689C10.3684 8.41806 10.3682 6.18254 11.9445 5.91158L12.2485 5.8474C13.7472 5.47262 14.9171 4.29051 15.2514 2.78119L15.2848 2.63055L15.3209 2.49417ZM16.7037 4.25012C16.106 5.61546 15.0047 6.70414 13.6323 7.2994C15.0049 7.89455 16.1059 8.98418 16.7037 10.3496C17.3074 8.98274 18.414 7.89351 19.7905 7.2994C18.414 6.70518 17.3073 5.61702 16.7037 4.25012Z"
            fill="currentColor" />
    </symbol>

    <symbol id="chart" viewBox="0 0 24 24" fill="none">
        <path
            d="M3 2C3.55228 2 4 2.44772 4 3V19C4 19.2652 4.10543 19.5195 4.29297 19.707C4.48051 19.8946 4.73478 20 5 20H21C21.5523 20 22 20.4477 22 21C22 21.5523 21.5523 22 21 22H5C4.20435 22 3.44151 21.6837 2.87891 21.1211C2.3163 20.5585 2 19.7957 2 19V3C2 2.44772 2.44772 2 3 2Z"
            fill="currentColor" />
        <path
            d="M18 7.83301C18.6443 7.83301 19.167 8.35567 19.167 9V17C19.167 17.6443 18.6443 18.167 18 18.167C17.3557 18.167 16.833 17.6443 16.833 17V9C16.833 8.35567 17.3557 7.83301 18 7.83301Z"
            fill="currentColor" />
        <path
            d="M8.00098 13C8.55326 13 9.00098 13.4477 9.00098 14V17C9.00098 17.5523 8.55326 18 8.00098 18C7.44869 18 7.00098 17.5523 7.00098 17V14C7.00098 13.4477 7.44869 13 8.00098 13Z"
            fill="currentColor" />
        <path
            d="M12.999 4C13.5513 4 13.999 4.44772 13.999 5V17C13.999 17.5523 13.5513 18 12.999 18C12.4467 18 11.999 17.5523 11.999 17V5C11.999 4.44772 12.4467 4 12.999 4Z"
            fill="currentColor" />
    </symbol>

    <symbol id="check" viewBox="0 0 24 24" fill="none">
        <path
            d="M19.2929 5.29289C19.6834 4.90237 20.3164 4.90237 20.707 5.29289C21.0973 5.68343 21.0974 6.31648 20.707 6.70696L9.70696 17.707C9.31648 18.0974 8.68343 18.0973 8.29289 17.707L3.29289 12.707C2.90237 12.3164 2.90237 11.6834 3.29289 11.2929C3.65901 10.9268 4.23801 10.9042 4.63078 11.2245L4.70696 11.2929L8.99992 15.5859L19.2929 5.29289Z"
            fill="currentColor" />
    </symbol>

    <symbol id="chevron-right" viewBox="0 0 24 24" fill="none">

        <path
            d="M8.29289 5.29309C8.68342 4.90262 9.31645 4.90259 9.70696 5.29309L15.707 11.2931C16.0974 11.6836 16.0974 12.3167 15.707 12.7072L9.70696 18.7072C9.31646 19.0976 8.68343 19.0976 8.29289 18.7072C7.90237 18.3166 7.90237 17.6836 8.29289 17.2931L13.5859 12.0001L8.29289 6.70715C7.90237 6.31663 7.90237 5.68362 8.29289 5.29309Z"
            fill="currentColor" />

    </symbol>

    <symbol id="chevron-left" viewBox="0 0 24 24" fill="none">
        <path
            d="M14.2929 5.29328C14.6834 4.90275 15.3164 4.90275 15.707 5.29328C16.0973 5.68381 16.0974 6.31686 15.707 6.70734L10.414 12.0003L15.707 17.2933L15.7753 17.3694C16.0955 17.7622 16.073 18.3413 15.707 18.7073C15.3409 19.0734 14.7618 19.0959 14.3691 18.7757L14.2929 18.7073L8.29289 12.7073C7.90237 12.3168 7.90237 11.6838 8.29289 11.2933L14.2929 5.29328Z"
            fill="currentColor" />
    </symbol>

    <symbol id="chevron-up" viewBox="0 0 24 24" fill="none">
        <path
            d="M17.2929 15.7069C17.6834 16.0974 18.3164 16.0974 18.707 15.7069C19.0973 15.3163 19.0974 14.6833 18.707 14.2928L12.707 8.29282C12.3165 7.90234 11.6834 7.90244 11.2929 8.29282L5.29289 14.2928C4.90237 14.6833 4.90237 15.3164 5.29289 15.7069C5.68342 16.0974 6.31643 16.0974 6.70696 15.7069L11.9999 10.4139L17.2929 15.7069Z"
            fill="currentColor" />
    </symbol>

    <symbol id="confirm" viewBox="0 0 40 40" fill="none">
        <path
            d="M0 20C0 8.95431 8.95431 0 20 0C31.0457 0 40 8.95431 40 20C40 31.0457 31.0457 40 20 40C8.95431 40 0 31.0457 0 20Z"
            fill="#1F9854" />
        <path
            d="M27.2929 13.293C27.6834 12.9025 28.3164 12.9025 28.707 13.293C29.0973 13.6836 29.0974 14.3166 28.707 14.7071L17.707 25.7071C17.3165 26.0976 16.6834 26.0975 16.2929 25.7071L11.2929 20.7071C10.9024 20.3166 10.9024 19.6835 11.2929 19.293C11.659 18.9269 12.238 18.9043 12.6308 19.2247L12.707 19.293L16.9999 23.586L27.2929 13.293Z"
            fill="#FDFDFD" />

    </symbol>

    <symbol id="down-arrow" viewBox="0 0 24 24" fill="none">
        <path
            d="M17.2929 8.29302C17.6834 7.90249 18.3164 7.90249 18.707 8.29302C19.0973 8.68355 19.0974 9.3166 18.707 9.70708L12.707 15.7071C12.3165 16.0976 11.6834 16.0975 11.2929 15.7071L5.29289 9.70708C4.90237 9.31655 4.90237 8.68354 5.29289 8.29302C5.68342 7.90249 6.31643 7.90249 6.70696 8.29302L11.9999 13.586L17.2929 8.29302Z"
            fill="currentColor" />
    </symbol>

    <symbol id="flash" viewBox="0 0 24 24" fill="none">
        <path fill-rule="evenodd" clip-rule="evenodd"
            d="M13.2247 1.02267C13.5174 0.968539 13.8192 1.00245 14.0909 1.11935L14.2051 1.17501L14.3145 1.23947C14.527 1.37746 14.701 1.56779 14.8204 1.79122L14.876 1.90548L14.921 2.02462C15.0141 2.30501 15.0221 2.60802 14.9434 2.89474C14.9399 2.90753 14.9367 2.92115 14.9327 2.9338L13.0128 8.95333L12.9962 9.00021H19.9991C20.3764 8.99947 20.7468 9.10538 21.0665 9.30587C21.3868 9.50696 21.6433 9.79583 21.8067 10.1369C21.9699 10.4781 22.0336 10.859 21.9893 11.2346C21.9449 11.6103 21.7941 11.9661 21.5557 12.26C21.5372 12.2828 21.5176 12.3052 21.4971 12.3264L11.5967 22.5266L11.5958 22.5256C11.377 22.7595 11.0903 22.9193 10.7745 22.9777C10.44 23.0396 10.094 22.9859 9.794 22.8254C9.49423 22.6649 9.25728 22.4064 9.12311 22.094C8.98924 21.7816 8.96559 21.4324 9.05572 21.1047L9.06646 21.0656L10.9864 15.0461L11.003 15.0002H3.99908C3.62206 15.0007 3.25205 14.894 2.93268 14.6936C2.61259 14.4925 2.35569 14.2045 2.19244 13.8635C2.02928 13.5222 1.96544 13.1405 2.00982 12.7649C2.05436 12.3893 2.20516 12.0332 2.44342 11.7395C2.46192 11.7167 2.48158 11.6941 2.50201 11.6731L12.4024 1.47384C12.6211 1.23994 12.9089 1.08113 13.2247 1.02267ZM4.00201 13.0002H10.9991C11.3215 12.9996 11.6398 13.0771 11.9258 13.2258C12.2126 13.375 12.4598 13.5915 12.6446 13.8567C12.8293 14.122 12.9469 14.4295 12.9874 14.7502C13.0257 15.0547 12.9898 15.363 12.8897 15.6526L12.8926 15.6535L11.626 19.6242L19.9971 11.0002H12.9991C12.677 11.0006 12.3591 10.9233 12.0733 10.7746C11.7865 10.6253 11.5393 10.4081 11.3546 10.1428C11.17 9.87754 11.0522 9.57079 11.0118 9.25021C10.9735 8.94539 11.008 8.6358 11.1085 8.34591H11.1065L12.3721 4.37423L4.00201 13.0002Z"
            fill="currentColor" />
    </symbol>

    <symbol id="like" viewBox="0 0 24 24" fill="none">
        <path fill-rule="evenodd" clip-rule="evenodd"
            d="M11.7637 1.00195C12.1038 0.995463 12.4402 1.06069 12.752 1.19434L12.751 1.19531C13.0778 1.33547 13.3688 1.54352 13.6084 1.80176C13.8475 2.05967 14.0328 2.36347 14.1582 2.69043C14.2837 3.01766 14.349 3.36663 14.3516 3.7168V7.28223H19.4521L19.4883 7.2832C19.8735 7.29729 20.2473 7.40334 20.583 7.58789C20.9182 7.77239 21.2069 8.02973 21.4326 8.33496C21.6583 8.64015 21.8189 8.98918 21.9102 9.35645C22.0014 9.72381 22.0217 10.1071 21.9717 10.4824V10.4863L20.8623 18.541L20.8633 18.542C20.7928 19.1853 20.5138 19.7998 20.0527 20.2598C19.5884 20.7228 18.9666 20.9992 18.2998 21H9.18262C8.57256 21.0019 7.97545 20.8432 7.44141 20.543L7.44043 20.542L6.58594 20.0605H3.625C3.1345 20.0605 2.69112 19.8397 2.38477 19.4941C2.08241 19.1532 1.92975 18.7138 1.92969 18.2773V9.95898C1.9297 9.52213 2.08219 9.08228 2.38477 8.74121L2.50586 8.61816C2.80229 8.34475 3.19547 8.17578 3.625 8.17578H6.32812L9.57227 2.33008C9.7861 1.94003 10.0939 1.60432 10.4756 1.36621C10.8466 1.13483 11.2727 1.00772 11.7129 1.00293C11.73 1.00224 11.7475 1.00129 11.7646 1.00098L11.7637 1.00195ZM11.7422 3.00098C11.6778 3.00033 11.6061 3.01773 11.5342 3.0625C11.4607 3.10838 11.3846 3.18474 11.3252 3.29395L11.3213 3.30078L7.91797 9.43164V18.5156L8.4209 18.7988C8.66222 18.9345 8.92159 19.001 9.17773 19H18.2979C18.4031 18.9997 18.527 18.9571 18.6406 18.8438C18.7578 18.7268 18.8508 18.5448 18.875 18.3242L18.8779 18.2969L19.9893 10.2188C20.0062 10.0913 19.9991 9.96111 19.9688 9.83887C19.9384 9.71661 19.8873 9.60977 19.8242 9.52441C19.7612 9.43924 19.6891 9.37934 19.6191 9.34082C19.5845 9.32176 19.5497 9.30736 19.5156 9.29785L19.416 9.28223H13.3516C12.7995 9.28201 12.3516 8.83438 12.3516 8.28223V3.73145L12.3467 3.64648C12.3385 3.56247 12.3195 3.48167 12.291 3.40723C12.2529 3.30797 12.2001 3.22521 12.1416 3.16211C12.0834 3.09949 12.0212 3.05723 11.9629 3.03223C11.9053 3.00764 11.8481 2.99782 11.7939 3C11.7769 3.00069 11.7593 3.00116 11.7422 3.00098ZM3.92969 18.0605H5.91797V10.1758H3.92969V18.0605Z"
            fill="currentColor" />
    </symbol>


    <symbol id="menu" viewBox="0 0 24 24" fill="none">
        <path class="hamburger-line top"
            d="M21 15.2861C21.5523 15.2861 22 15.7338 22 16.2861C21.9997 16.8382 21.5521 17.2861 21 17.2861H3C2.44788 17.2861 2.00026 16.8382 2 16.2861C2 15.7338 2.44772 15.2861 3 15.2861H21Z"
            fill="currentColor" />
        <path class="hamburger-line bottom"
            d="M21 6.71387C21.5523 6.71387 22 7.16256 22 7.71484C21.9997 8.2669 21.5521 8.71484 21 8.71484H3C2.44788 8.71484 2.00026 8.2669 2 7.71484C2 7.16256 2.44772 6.71387 3 6.71387H21Z"
            fill="currentColor" />
    </symbol>

    <symbol id="ru-store" viewBox="0 0 33 32" fill="none">
        <path fill-rule="evenodd" clip-rule="evenodd"
            d="M15.9 31C9.11179 31 5.71766 31 3.60883 28.8912C1.5 26.7823 1.5 23.3882 1.5 16.5999L1.5 15.3999C1.5 8.61168 1.5 5.21756 3.60883 3.10871C5.71766 1 9.11178 1 15.9 1L17.1 1C23.8882 1 27.2823 1 29.3912 3.10871C31.5 5.21752 31.5 8.61168 31.5 15.3999V16.5999C31.5 23.3882 31.5 26.7823 29.3912 28.8912C27.2823 31 23.8882 31 17.1 31H15.9Z"
            fill="#0077FF" />
        <path
            d="M18.2676 7.67801C18.2676 6.71598 19.2 6.01018 20.1621 6.24441L26.2549 7.72781C27.1018 7.93412 27.6953 8.67289 27.6953 9.5198V19.4983C27.695 20.4602 26.7628 21.1651 25.8008 20.9309L22.9814 20.2444C22.6734 20.168 22.4541 19.9023 22.4434 19.593L22.0625 11.8196C21.974 10.6567 21.5143 9.92314 20.5879 9.65066C20.5358 9.63537 20.48 9.65593 20.4492 9.69949C20.418 9.74377 20.43 9.80527 20.4736 9.83816C20.7026 10.0107 21.409 10.4959 21.4092 11.4661L21.4082 19.8606L19.708 19.4475C18.8611 19.2413 18.2677 18.5033 18.2676 17.6565V7.67801Z"
            fill="#FDFDFD" />
        <path
            d="M11.9805 9.59012C11.9805 8.62809 12.9139 7.92229 13.876 8.15652L19.9688 9.63992C20.8157 9.84623 21.4092 10.585 21.4092 11.4319V21.4104C21.4089 22.3723 20.4767 23.0772 19.5146 22.843L16.6953 22.1565C16.3873 22.0802 16.168 21.8144 16.1572 21.5052L15.7764 13.7317C15.6879 12.5688 15.2282 11.8353 14.3018 11.5628C14.2497 11.5475 14.1939 11.568 14.1631 11.6116C14.1319 11.6559 14.1439 11.7174 14.1875 11.7503C14.4165 11.9228 15.1228 12.408 15.123 13.3782L15.1221 21.7727L13.4219 21.3596C12.575 21.1534 11.9806 20.4154 11.9805 19.5686V9.59012Z"
            fill="#FDFDFD" />
        <path
            d="M7.13651 23.4484C6.28932 23.2391 5.69531 22.4895 5.69531 21.6297V11.5008C5.69531 10.5243 6.62816 9.80813 7.59041 10.0459L13.6841 11.5516C14.5313 11.7609 15.1253 12.5105 15.1253 13.3703V23.4992C15.1253 24.4757 14.1924 25.1919 13.2302 24.9541L7.13651 23.4484Z"
            fill="#FDFDFD" />
    </symbol>


    <symbol id="satellite-dish" viewBox="0 0 24 24" fill="none">
        <path fill-rule="evenodd" clip-rule="evenodd"
            d="M9.23024 2C9.49514 2.00021 9.74992 2.10565 9.93727 2.29297L15.115 7.4707L18.2156 4.37012C18.6061 3.97988 19.2392 3.97974 19.6297 4.37012C20.0198 4.76057 20.0198 5.39372 19.6297 5.78418L16.5291 8.88477L21.7068 14.0625C22.0968 14.4529 22.0968 15.0861 21.7068 15.4766C19.9588 17.2247 17.5871 18.2068 15.115 18.207C14.0774 18.207 13.0579 18.0312 12.0945 17.7012L12.9617 20.7246C13.0479 21.026 12.9871 21.3511 12.7986 21.6016C12.6099 21.852 12.3133 21.9997 11.9998 22H2.99977C2.64192 22 2.31099 21.8082 2.13258 21.498C1.95429 21.1875 1.95604 20.8054 2.13649 20.4961L6.64332 12.7715C6.089 11.5633 5.79274 10.2396 5.79274 8.88477C5.79277 6.41235 6.77496 4.04124 8.5232 2.29297C8.71068 2.10571 8.96524 2.00003 9.23024 2ZM4.74098 20H10.6736L9.65211 16.4365C9.25381 16.1484 8.87526 15.8286 8.5232 15.4766C8.27688 15.2302 8.0471 14.9698 7.8318 14.7002L4.74098 20ZM9.27906 4.46289C8.32033 5.72818 7.79276 7.2792 7.79274 8.88477C7.79274 10.0351 8.06499 11.1566 8.57106 12.166C8.64752 12.262 8.70436 12.3705 8.74098 12.4854C9.06419 13.0575 9.46442 13.5896 9.93727 14.0625C10.2277 14.3529 10.5415 14.6147 10.8718 14.8496C11.0029 14.9016 11.1224 14.9813 11.2214 15.083C12.379 15.8099 13.7263 16.207 15.115 16.207C16.7203 16.2069 18.2709 15.6782 19.5359 14.7197L9.27906 4.46289Z"
            fill="currentColor" />
    </symbol>

    <symbol id="shield-check" viewBox="0 0 24 24" fill="none">
        <path
            d="M15.4463 8.14844C15.8131 7.73639 16.4451 7.69983 16.8574 8.06641C17.2696 8.4332 17.306 9.06515 16.9395 9.47754L11.3545 15.7568C11.0092 16.1449 10.4245 16.2042 10.0088 15.8926L7.2168 13.7998L7.1377 13.7344C6.76508 13.3912 6.7063 12.8145 7.0166 12.4004C7.32691 11.9866 7.89626 11.8816 8.33008 12.1426L8.41504 12.2002L10.4717 13.7412L15.4463 8.14844Z"
            fill="currentColor" />
        <path fill-rule="evenodd" clip-rule="evenodd"
            d="M19.6152 3C20.2472 3 20.8536 3.25141 21.3008 3.69824C21.748 4.14517 22 4.75147 22 5.38379V9.53418L21.9902 10.0742C21.8897 12.767 21.0265 15.3802 19.4961 17.6074C17.8635 19.9832 15.5482 21.8087 12.8564 22.8418L12.8555 22.8408C12.3043 23.0527 11.6947 23.0529 11.1436 22.8408C8.45203 21.8078 6.13636 19.983 4.50391 17.6074C2.87159 15.2317 1.99826 12.4162 2 9.53418V5.38379C2 4.7515 2.25203 4.14519 2.69922 3.69824C3.14635 3.25145 3.75273 3 4.38477 3H19.6152ZM4.38477 4.99902C4.28244 4.99902 4.18355 5.04015 4.11133 5.1123C4.0394 5.1844 3.99903 5.28217 3.99903 5.38379V9.53516L4.00782 10C4.09423 12.3146 4.83572 14.5619 6.15137 16.4766C7.55469 18.5186 9.54525 20.0864 11.8594 20.9746L11.8604 20.9756C11.9497 21.01 12.0493 21.0099 12.1387 20.9756L12.1406 20.9746C14.4547 20.0864 16.4452 18.5186 17.8486 16.4766C19.252 14.4342 20.0024 12.0127 20.001 9.53516V5.38379C20.001 5.28221 19.9606 5.18441 19.8887 5.1123C19.8165 5.04017 19.7176 4.99902 19.6152 4.99902H4.38477Z"
            fill="currentColor" />
    </symbol>

    <symbol id="telegram" viewBox="0 0 24 24" fill="none">
        <path
            d="M20.5595 4.3261C20.8251 4.36209 21.0765 4.46872 21.287 4.63469C21.4976 4.80071 21.6598 5.02047 21.7567 5.27044C21.8536 5.52021 21.8822 5.79125 21.8388 6.05559L19.5702 19.8124C19.3502 21.1394 17.8946 21.901 16.6776 21.2402C15.6598 20.6872 14.1479 19.8351 12.788 18.9462C12.108 18.5012 10.0242 17.0755 10.2802 16.0615C10.501 15.194 14.0011 11.9367 16.0009 9.99993C16.7856 9.23907 16.4277 8.80017 15.5009 9.49993C13.1989 11.2379 9.50218 13.8809 8.28018 14.6249C7.20245 15.2807 6.64054 15.3931 5.96866 15.2812C4.74269 15.0772 3.60563 14.7609 2.67764 14.3759C1.42364 13.8559 1.48467 12.1318 2.67667 11.6298L19.7763 4.42962C20.0233 4.32565 20.2939 4.29018 20.5595 4.3261Z"
            fill="currentColor" />
    </symbol>


</svg>