<svg width="24" height="24" viewBox="0 0 24 24" fill="none" xmlns="http://www.w3.org/2000/svg">
<path d="M11.5267 5.13965C12.5563 5.15405 12.8232 5.21965 13.1976 5.31445C13.9511 5.49448 13.9658 5.98337 13.8998 7.64648C13.8806 8.12168 13.8597 8.65712 13.8597 9.28711C13.8597 9.42144 13.8539 9.57134 13.8539 9.72363C13.8311 10.5768 13.8013 11.5378 14.4037 11.9326C14.4814 11.9818 14.5715 12.0075 14.6635 12.0068C14.8722 12.0068 15.4982 12.0075 17.1937 9.09766C17.9375 7.81291 18.5131 6.29758 18.5531 6.18262C18.5867 6.11902 18.6875 5.94016 18.8099 5.86816C18.8974 5.82288 18.9947 5.7996 19.0931 5.80078H23.1674C23.6112 5.80082 23.9123 5.86818 23.9711 6.03613C24.0694 6.30862 23.9518 7.14048 22.0922 9.65527C21.7791 10.0739 21.5042 10.4362 21.2631 10.7529C19.5771 12.9657 19.5771 13.0778 21.3627 14.7578C21.3909 14.7857 23.3059 16.6802 23.7826 17.5605C23.7924 17.5729 23.7997 17.5874 23.8041 17.6025C23.9993 17.9297 24.0483 18.1882 23.9515 18.377C23.7894 18.69 23.241 18.8472 23.0551 18.8604H19.6254C19.3864 18.8603 18.8898 18.798 18.2855 18.3809C17.8235 18.0581 17.3635 17.5264 16.9183 17.0068C16.2535 16.2353 15.679 15.5655 15.097 15.5654C15.0237 15.5663 14.9509 15.5786 14.8812 15.6016C14.4408 15.7408 13.8812 16.3684 13.8812 18.04C13.881 18.563 13.4682 18.8604 13.1791 18.8604H11.6088C11.0736 18.8604 8.2866 18.6736 5.8158 16.0684C2.79241 12.8832 0.0771505 6.49769 0.0433348 6.42383C-0.125816 6.00995 0.2288 5.78431 0.612671 5.78418H4.07654C4.54041 5.78431 4.69167 6.06458 4.79724 6.31641C4.91964 6.60561 5.37355 7.7629 6.11755 9.0625C7.32232 11.1768 8.06307 12.0371 8.65466 12.0371C8.76563 12.0372 8.87475 12.0082 8.97107 11.9531C9.74376 11.5281 9.59984 8.76799 9.56384 8.19922C9.56384 8.08637 9.56187 6.96651 9.16638 6.4248C8.8833 6.03628 8.40135 5.88533 8.10974 5.83008C8.18774 5.71728 8.3534 5.54438 8.5658 5.44238C9.09503 5.17846 10.0513 5.13965 11.0004 5.13965H11.5267Z" fill="#101828"/>
</svg>
