<svg width="24" height="24" viewBox="0 0 24 24" fill="none" xmlns="http://www.w3.org/2000/svg">
<path d="M15.4463 8.14844C15.8131 7.73639 16.4451 7.69983 16.8574 8.06641C17.2696 8.4332 17.306 9.06515 16.9395 9.47754L11.3545 15.7568C11.0092 16.1449 10.4245 16.2042 10.0088 15.8926L7.2168 13.7998L7.1377 13.7344C6.76508 13.3912 6.7063 12.8145 7.0166 12.4004C7.32691 11.9866 7.89626 11.8816 8.33008 12.1426L8.41504 12.2002L10.4717 13.7412L15.4463 8.14844Z" fill="#FDFDFD"/>
<path fill-rule="evenodd" clip-rule="evenodd" d="M19.6152 3C20.2472 3 20.8536 3.25141 21.3008 3.69824C21.748 4.14517 22 4.75147 22 5.38379V9.53418L21.9902 10.0742C21.8897 12.767 21.0265 15.3802 19.4961 17.6074C17.8635 19.9832 15.5482 21.8087 12.8564 22.8418L12.8555 22.8408C12.3043 23.0527 11.6947 23.0529 11.1436 22.8408C8.45203 21.8078 6.13636 19.983 4.50391 17.6074C2.87159 15.2317 1.99826 12.4162 2 9.53418V5.38379C2 4.7515 2.25203 4.14519 2.69922 3.69824C3.14635 3.25145 3.75273 3 4.38477 3H19.6152ZM4.38477 4.99902C4.28244 4.99902 4.18355 5.04015 4.11133 5.1123C4.0394 5.1844 3.99903 5.28217 3.99903 5.38379V9.53516L4.00782 10C4.09423 12.3146 4.83572 14.5619 6.15137 16.4766C7.55469 18.5186 9.54525 20.0864 11.8594 20.9746L11.8604 20.9756C11.9497 21.01 12.0493 21.0099 12.1387 20.9756L12.1406 20.9746C14.4547 20.0864 16.4452 18.5186 17.8486 16.4766C19.252 14.4342 20.0024 12.0127 20.001 9.53516V5.38379C20.001 5.28221 19.9606 5.18441 19.8887 5.1123C19.8165 5.04017 19.7176 4.99902 19.6152 4.99902H4.38477Z" fill="#FDFDFD"/>
</svg>
