<svg width="24" height="24" viewBox="0 0 24 24" fill="none" xmlns="http://www.w3.org/2000/svg">
<path d="M20.5595 4.3261C20.8251 4.36209 21.0765 4.46872 21.287 4.63469C21.4976 4.80071 21.6598 5.02047 21.7567 5.27044C21.8536 5.52021 21.8822 5.79125 21.8388 6.05559L19.5702 19.8124C19.3502 21.1394 17.8946 21.901 16.6776 21.2402C15.6598 20.6872 14.1479 19.8351 12.788 18.9462C12.108 18.5012 10.0242 17.0755 10.2802 16.0615C10.501 15.194 14.0011 11.9367 16.0009 9.99993C16.7856 9.23907 16.4277 8.80017 15.5009 9.49993C13.1989 11.2379 9.50218 13.8809 8.28018 14.6249C7.20245 15.2807 6.64054 15.3931 5.96866 15.2812C4.74269 15.0772 3.60563 14.7609 2.67764 14.3759C1.42364 13.8559 1.48467 12.1318 2.67667 11.6298L19.7763 4.42962C20.0233 4.32565 20.2939 4.29018 20.5595 4.3261Z" fill="#101828"/>
</svg>
